<mxfile host="Electron" agent="Mozilla/5.0 (Windows NT 10.0; Win64; x64) AppleWebKit/537.36 (KHTML, like Gecko) draw.io/26.0.16 Chrome/132.0.6834.196 Electron/34.2.0 Safari/537.36" version="26.0.16" pages="12">
  <diagram id="tJqLn7msZHwJoY5_B4Vj" name="Capabilities">
    <mxGraphModel dx="1840" dy="1089" grid="1" gridSize="10" guides="1" tooltips="1" connect="1" arrows="1" fold="1" page="1" pageScale="1" pageWidth="1169" pageHeight="827" math="0" shadow="0">
      <root>
        <mxCell id="0" />
        <mxCell id="1" parent="0" />
        <mxCell id="nsLn4ViY47CWokU0kFmy-1" value="IBM Cloud" style="shape=mxgraph.ibm.box;prType=cloud;fontStyle=0;verticalAlign=top;align=left;spacingLeft=32;spacingTop=4;fillColor=none;rounded=0;whiteSpace=wrap;html=1;strokeColor=#4376BB;strokeWidth=3;dashed=0;container=1;spacing=-4;collapsible=0;expand=0;recursiveResize=0;" parent="1" vertex="1">
          <mxGeometry x="40" y="30" width="920" height="560" as="geometry" />
        </mxCell>
        <mxCell id="nsLn4ViY47CWokU0kFmy-3" value="Region eu-de (Frankfurt)" style="shape=mxgraph.ibm.box;prType=region;fontStyle=0;verticalAlign=top;align=left;spacingLeft=32;spacingTop=4;fillColor=none;rounded=0;whiteSpace=wrap;html=1;strokeColor=#919191;strokeWidth=2;dashed=0;container=1;spacing=-4;collapsible=0;expand=0;recursiveResize=0;" parent="nsLn4ViY47CWokU0kFmy-1" vertex="1">
          <mxGeometry x="25" y="31" width="890" height="520" as="geometry" />
        </mxCell>
        <mxCell id="nsLn4ViY47CWokU0kFmy-2" value="RedHat OpenShift Kubernetes Services - ROKS" style="rounded=0;whiteSpace=wrap;html=1;fillColor=#000000;fontColor=#FFFFFF;fontStyle=1" parent="nsLn4ViY47CWokU0kFmy-3" vertex="1">
          <mxGeometry x="10" y="485" width="870" height="20" as="geometry" />
        </mxCell>
        <mxCell id="nsLn4ViY47CWokU0kFmy-8" value="namespace: cp4i" style="rounded=0;whiteSpace=wrap;html=1;fontColor=#000000;fillColor=#FFFFFF;align=left;verticalAlign=top;" parent="nsLn4ViY47CWokU0kFmy-3" vertex="1">
          <mxGeometry x="10" y="30" width="870" height="310" as="geometry" />
        </mxCell>
        <mxCell id="nsLn4ViY47CWokU0kFmy-9" value="namespace: ldap" style="rounded=0;whiteSpace=wrap;html=1;fontColor=#000000;fillColor=#FFFFFF;align=left;verticalAlign=top;" parent="nsLn4ViY47CWokU0kFmy-3" vertex="1">
          <mxGeometry x="226" y="344" width="150" height="135.82649999999998" as="geometry" />
        </mxCell>
        <mxCell id="1tfUE89n-SpSm_Kpjp4D-1" value="namespace: common-services" style="rounded=0;whiteSpace=wrap;html=1;fontColor=#000000;fillColor=#FFFFFF;align=left;verticalAlign=top;" parent="nsLn4ViY47CWokU0kFmy-3" vertex="1">
          <mxGeometry x="10" y="344" width="200" height="135.82649999999998" as="geometry" />
        </mxCell>
        <mxCell id="1tfUE89n-SpSm_Kpjp4D-13" value="DataPower Service" style="rounded=0;whiteSpace=wrap;html=1;fillColor=#FFFFFF;strokeColor=#009900;fontColor=#009900;" parent="nsLn4ViY47CWokU0kFmy-3" vertex="1">
          <mxGeometry x="39.68500000000002" y="81" width="157.48" height="21" as="geometry" />
        </mxCell>
        <mxCell id="1tfUE89n-SpSm_Kpjp4D-14" value="DataPower Monitor" style="rounded=0;whiteSpace=wrap;html=1;fillColor=#FFFFFF;strokeColor=#009900;fontColor=#009900;" parent="nsLn4ViY47CWokU0kFmy-3" vertex="1">
          <mxGeometry x="39.68500000000002" y="105" width="157.48" height="21" as="geometry" />
        </mxCell>
        <mxCell id="1tfUE89n-SpSm_Kpjp4D-8" value="Event Streams" style="rounded=0;whiteSpace=wrap;html=1;fillColor=#FFFFFF;strokeColor=#0000CC;fontColor=#0000CC;" parent="nsLn4ViY47CWokU0kFmy-3" vertex="1">
          <mxGeometry x="670" y="57" width="196.85" height="21" as="geometry" />
        </mxCell>
        <mxCell id="1tfUE89n-SpSm_Kpjp4D-37" value="Analytics cluster" style="rounded=0;whiteSpace=wrap;html=1;fillColor=#FFFFFF;strokeColor=#009900;fontColor=#009900;" parent="nsLn4ViY47CWokU0kFmy-3" vertex="1">
          <mxGeometry x="256.685" y="81" width="157.48" height="21" as="geometry" />
        </mxCell>
        <mxCell id="1tfUE89n-SpSm_Kpjp4D-38" value="API Connect cluster" style="rounded=0;whiteSpace=wrap;html=1;fillColor=#FFFFFF;strokeColor=#009900;fontColor=#009900;" parent="nsLn4ViY47CWokU0kFmy-3" vertex="1">
          <mxGeometry x="256.685" y="106" width="157.48" height="21" as="geometry" />
        </mxCell>
        <mxCell id="1tfUE89n-SpSm_Kpjp4D-47" value="Gateway Cluster" style="rounded=0;whiteSpace=wrap;html=1;fillColor=#FFFFFF;strokeColor=#009900;fontColor=#009900;" parent="nsLn4ViY47CWokU0kFmy-3" vertex="1">
          <mxGeometry x="256.685" y="130" width="157.48" height="21" as="geometry" />
        </mxCell>
        <mxCell id="1tfUE89n-SpSm_Kpjp4D-48" value="Management cluster" style="rounded=0;whiteSpace=wrap;html=1;fillColor=#FFFFFF;strokeColor=#009900;fontColor=#009900;" parent="nsLn4ViY47CWokU0kFmy-3" vertex="1">
          <mxGeometry x="256.685" y="155" width="157.48" height="21" as="geometry" />
        </mxCell>
        <mxCell id="1tfUE89n-SpSm_Kpjp4D-59" value="Portal cluster" style="rounded=0;whiteSpace=wrap;html=1;fillColor=#FFFFFF;strokeColor=#009900;fontColor=#009900;" parent="nsLn4ViY47CWokU0kFmy-3" vertex="1">
          <mxGeometry x="256.685" y="179" width="157.48" height="21" as="geometry" />
        </mxCell>
        <mxCell id="1tfUE89n-SpSm_Kpjp4D-9" value="Automation Foundation asset" style="rounded=0;whiteSpace=wrap;html=1;fillColor=#FFFFFF;strokeColor=#0000CC;fontColor=#0000CC;" parent="nsLn4ViY47CWokU0kFmy-3" vertex="1">
          <mxGeometry x="452.99999999999994" y="261" width="196.85" height="21" as="geometry" />
        </mxCell>
        <mxCell id="1tfUE89n-SpSm_Kpjp4D-64" value="Configuration" style="rounded=0;whiteSpace=wrap;html=1;fillColor=#FFFFFF;strokeColor=#009900;fontColor=#009900;" parent="nsLn4ViY47CWokU0kFmy-3" vertex="1">
          <mxGeometry x="472.68499999999995" y="82" width="157.48" height="21" as="geometry" />
        </mxCell>
        <mxCell id="1tfUE89n-SpSm_Kpjp4D-65" value="Dashboard" style="rounded=0;whiteSpace=wrap;html=1;fillColor=#FFFFFF;strokeColor=#009900;fontColor=#009900;" parent="nsLn4ViY47CWokU0kFmy-3" vertex="1">
          <mxGeometry x="472.68499999999995" y="106" width="157.48" height="21" as="geometry" />
        </mxCell>
        <mxCell id="1tfUE89n-SpSm_Kpjp4D-66" value="Designer Authoring" style="rounded=0;whiteSpace=wrap;html=1;fillColor=#FFFFFF;strokeColor=#009900;fontColor=#009900;" parent="nsLn4ViY47CWokU0kFmy-3" vertex="1">
          <mxGeometry x="472.68499999999995" y="131" width="157.48" height="21" as="geometry" />
        </mxCell>
        <mxCell id="1tfUE89n-SpSm_Kpjp4D-67" value="Integration Runtime" style="rounded=0;whiteSpace=wrap;html=1;fillColor=#FFFFFF;strokeColor=#009900;fontColor=#009900;" parent="nsLn4ViY47CWokU0kFmy-3" vertex="1">
          <mxGeometry x="472.68499999999995" y="155" width="157.48" height="21" as="geometry" />
        </mxCell>
        <mxCell id="1tfUE89n-SpSm_Kpjp4D-68" value="Integration Server" style="rounded=0;whiteSpace=wrap;html=1;fillColor=#FFFFFF;strokeColor=#009900;fontColor=#009900;" parent="nsLn4ViY47CWokU0kFmy-3" vertex="1">
          <mxGeometry x="472.68499999999995" y="180" width="157.48" height="21" as="geometry" />
        </mxCell>
        <mxCell id="1tfUE89n-SpSm_Kpjp4D-69" value="Switch Server" style="rounded=0;whiteSpace=wrap;html=1;fillColor=#FFFFFF;strokeColor=#009900;fontColor=#009900;" parent="nsLn4ViY47CWokU0kFmy-3" vertex="1">
          <mxGeometry x="472.68499999999995" y="204" width="157.48" height="21" as="geometry" />
        </mxCell>
        <mxCell id="1tfUE89n-SpSm_Kpjp4D-70" value="Trace" style="rounded=0;whiteSpace=wrap;html=1;fillColor=#FFFFFF;strokeColor=#009900;fontColor=#009900;" parent="nsLn4ViY47CWokU0kFmy-3" vertex="1">
          <mxGeometry x="472.68499999999995" y="229" width="157.48" height="21" as="geometry" />
        </mxCell>
        <mxCell id="1tfUE89n-SpSm_Kpjp4D-41" value="Common Service" style="rounded=0;whiteSpace=wrap;html=1;fillColor=#FFFFFF;strokeColor=#009900;fontColor=#009900;" parent="nsLn4ViY47CWokU0kFmy-3" vertex="1">
          <mxGeometry x="256.685" y="286" width="157.48" height="21" as="geometry" />
        </mxCell>
        <mxCell id="1tfUE89n-SpSm_Kpjp4D-4" value="&lt;span style=&quot;font-family: Helvetica; font-size: 12px; font-style: normal; font-variant-ligatures: normal; font-variant-caps: normal; font-weight: 400; letter-spacing: normal; orphans: 2; text-align: center; text-indent: 0px; text-transform: none; widows: 2; word-spacing: 0px; -webkit-text-stroke-width: 0px; background-color: rgb(251, 251, 251); text-decoration-thickness: initial; text-decoration-style: initial; text-decoration-color: initial; float: none; display: inline !important;&quot;&gt;DataPower Gateway&lt;/span&gt;" style="rounded=0;whiteSpace=wrap;html=1;fillColor=#FFFFFF;strokeColor=#0000CC;fontColor=#0000CC;" parent="nsLn4ViY47CWokU0kFmy-3" vertex="1">
          <mxGeometry x="20.000000000000014" y="57" width="196.85" height="21" as="geometry" />
        </mxCell>
        <mxCell id="1tfUE89n-SpSm_Kpjp4D-5" value="API Connect" style="rounded=0;whiteSpace=wrap;html=1;fillColor=#FFFFFF;strokeColor=#0000CC;fontColor=#0000CC;" parent="nsLn4ViY47CWokU0kFmy-3" vertex="1">
          <mxGeometry x="237" y="57" width="196.85" height="21" as="geometry" />
        </mxCell>
        <mxCell id="1tfUE89n-SpSm_Kpjp4D-6" value="App Connect" style="rounded=0;whiteSpace=wrap;html=1;fillColor=#FFFFFF;strokeColor=#0000CC;fontColor=#0000CC;" parent="nsLn4ViY47CWokU0kFmy-3" vertex="1">
          <mxGeometry x="452.99999999999994" y="57" width="196.85" height="21" as="geometry" />
        </mxCell>
        <mxCell id="1tfUE89n-SpSm_Kpjp4D-7" value="Cloud Pak foundational services" style="rounded=0;whiteSpace=wrap;html=1;fillColor=#FFFFFF;strokeColor=#0000CC;fontColor=#0000CC;" parent="nsLn4ViY47CWokU0kFmy-3" vertex="1">
          <mxGeometry x="237" y="261" width="196.85" height="21" as="geometry" />
        </mxCell>
        <mxCell id="1tfUE89n-SpSm_Kpjp4D-10" value="Cloud Pak for Integration" style="rounded=0;whiteSpace=wrap;html=1;fillColor=#FFFFFF;strokeColor=#0000CC;fontColor=#0000CC;" parent="nsLn4ViY47CWokU0kFmy-3" vertex="1">
          <mxGeometry x="20.000000000000014" y="136" width="196.85" height="21" as="geometry" />
        </mxCell>
        <mxCell id="1tfUE89n-SpSm_Kpjp4D-11" value="MQ" style="rounded=0;whiteSpace=wrap;html=1;fillColor=#FFFFFF;strokeColor=#0000CC;fontColor=#0000CC;" parent="nsLn4ViY47CWokU0kFmy-3" vertex="1">
          <mxGeometry x="237" y="207" width="196.85" height="21" as="geometry" />
        </mxCell>
        <mxCell id="1tfUE89n-SpSm_Kpjp4D-75" value="Event Streams" style="rounded=0;whiteSpace=wrap;html=1;fillColor=#FFFFFF;strokeColor=#009900;fontColor=#009900;" parent="nsLn4ViY47CWokU0kFmy-3" vertex="1">
          <mxGeometry x="689.685" y="81" width="157.48" height="21" as="geometry" />
        </mxCell>
        <mxCell id="1tfUE89n-SpSm_Kpjp4D-76" value="Kafka Connect" style="rounded=0;whiteSpace=wrap;html=1;fillColor=#FFFFFF;strokeColor=#009900;fontColor=#009900;movable=1;resizable=1;rotatable=1;deletable=1;editable=1;connectable=1;" parent="nsLn4ViY47CWokU0kFmy-3" vertex="1">
          <mxGeometry x="689.685" y="106" width="157.48" height="21" as="geometry" />
        </mxCell>
        <mxCell id="1tfUE89n-SpSm_Kpjp4D-77" value="Kafka Topic" style="rounded=0;whiteSpace=wrap;html=1;fillColor=#FFFFFF;strokeColor=#009900;fontColor=#009900;movable=1;resizable=1;rotatable=1;deletable=1;editable=1;connectable=1;" parent="nsLn4ViY47CWokU0kFmy-3" vertex="1">
          <mxGeometry x="689.685" y="130" width="157.48" height="21" as="geometry" />
        </mxCell>
        <mxCell id="1tfUE89n-SpSm_Kpjp4D-78" value="Kafka User" style="rounded=0;whiteSpace=wrap;html=1;fillColor=#FFFFFF;strokeColor=#009900;fontColor=#009900;movable=1;resizable=1;rotatable=1;deletable=1;editable=1;connectable=1;" parent="nsLn4ViY47CWokU0kFmy-3" vertex="1">
          <mxGeometry x="689.685" y="155" width="157.48" height="21" as="geometry" />
        </mxCell>
        <mxCell id="1tfUE89n-SpSm_Kpjp4D-79" value="Kafka Bridge" style="rounded=0;whiteSpace=wrap;html=1;fillColor=#FFFFFF;strokeColor=#009900;fontColor=#009900;movable=1;resizable=1;rotatable=1;deletable=1;editable=1;connectable=1;" parent="nsLn4ViY47CWokU0kFmy-3" vertex="1">
          <mxGeometry x="689.685" y="180" width="157.48" height="21" as="geometry" />
        </mxCell>
        <mxCell id="1tfUE89n-SpSm_Kpjp4D-80" value="Kafka Connector" style="rounded=0;whiteSpace=wrap;html=1;fillColor=#FFFFFF;strokeColor=#009900;fontColor=#009900;movable=1;resizable=1;rotatable=1;deletable=1;editable=1;connectable=1;" parent="nsLn4ViY47CWokU0kFmy-3" vertex="1">
          <mxGeometry x="689.685" y="204" width="157.48" height="21" as="geometry" />
        </mxCell>
        <mxCell id="1tfUE89n-SpSm_Kpjp4D-81" value="Kafka Mirror Maker 2" style="rounded=0;whiteSpace=wrap;html=1;fillColor=#FFFFFF;strokeColor=#009900;fontColor=#009900;movable=1;resizable=1;rotatable=1;deletable=1;editable=1;connectable=1;" parent="nsLn4ViY47CWokU0kFmy-3" vertex="1">
          <mxGeometry x="689.685" y="229" width="157.48" height="21" as="geometry" />
        </mxCell>
        <mxCell id="1tfUE89n-SpSm_Kpjp4D-82" value="Kafka Rebalance" style="rounded=0;whiteSpace=wrap;html=1;fillColor=#FFFFFF;strokeColor=#009900;fontColor=#009900;movable=1;resizable=1;rotatable=1;deletable=1;editable=1;connectable=1;" parent="nsLn4ViY47CWokU0kFmy-3" vertex="1">
          <mxGeometry x="689.685" y="253" width="157.48" height="21" as="geometry" />
        </mxCell>
        <mxCell id="1tfUE89n-SpSm_Kpjp4D-83" value="Geo-Replicator" style="rounded=0;whiteSpace=wrap;html=1;fillColor=#FFFFFF;strokeColor=#009900;fontColor=#009900;movable=1;resizable=1;rotatable=1;deletable=1;editable=1;connectable=1;" parent="nsLn4ViY47CWokU0kFmy-3" vertex="1">
          <mxGeometry x="689.685" y="278" width="157.48" height="21" as="geometry" />
        </mxCell>
        <mxCell id="1tfUE89n-SpSm_Kpjp4D-42" value="Asset Repository" style="rounded=0;whiteSpace=wrap;html=1;fillColor=#FFFFFF;strokeColor=#009900;fontColor=#009900;" parent="nsLn4ViY47CWokU0kFmy-3" vertex="1">
          <mxGeometry x="472.68499999999995" y="286" width="157.48" height="21" as="geometry" />
        </mxCell>
        <mxCell id="1tfUE89n-SpSm_Kpjp4D-85" value="Platform UI" style="rounded=0;whiteSpace=wrap;html=1;fillColor=#FFFFFF;strokeColor=#009900;fontColor=#009900;" parent="nsLn4ViY47CWokU0kFmy-3" vertex="1">
          <mxGeometry x="39.68500000000002" y="163" width="157.48" height="21" as="geometry" />
        </mxCell>
        <mxCell id="1tfUE89n-SpSm_Kpjp4D-86" value="Integration assembly" style="rounded=0;whiteSpace=wrap;html=1;fillColor=#FFFFFF;strokeColor=#009900;fontColor=#009900;" parent="nsLn4ViY47CWokU0kFmy-3" vertex="1">
          <mxGeometry x="39.68500000000002" y="187" width="157.48" height="21" as="geometry" />
        </mxCell>
        <mxCell id="1tfUE89n-SpSm_Kpjp4D-87" value="API" style="rounded=0;whiteSpace=wrap;html=1;fillColor=#FFFFFF;strokeColor=#009900;fontColor=#009900;" parent="nsLn4ViY47CWokU0kFmy-3" vertex="1">
          <mxGeometry x="39.68500000000002" y="211" width="157.48" height="21" as="geometry" />
        </mxCell>
        <mxCell id="1tfUE89n-SpSm_Kpjp4D-88" value="Product" style="rounded=0;whiteSpace=wrap;html=1;fillColor=#FFFFFF;strokeColor=#009900;fontColor=#009900;" parent="nsLn4ViY47CWokU0kFmy-3" vertex="1">
          <mxGeometry x="39.68500000000002" y="235" width="157.48" height="21" as="geometry" />
        </mxCell>
        <mxCell id="1tfUE89n-SpSm_Kpjp4D-49" value="Queue Manager" style="rounded=0;whiteSpace=wrap;html=1;fillColor=#FFFFFF;strokeColor=#009900;fontColor=#009900;" parent="nsLn4ViY47CWokU0kFmy-3" vertex="1">
          <mxGeometry x="256.685" y="235" width="157.48" height="21" as="geometry" />
        </mxCell>
        <mxCell id="seu8xqsjH91Jsqb18Nm0-1" value="Event Endpoint Manager" style="rounded=0;whiteSpace=wrap;html=1;fillColor=#FFFFFF;strokeColor=#0000CC;fontColor=#0000CC;" parent="nsLn4ViY47CWokU0kFmy-3" vertex="1">
          <mxGeometry x="20" y="261" width="196.85" height="21" as="geometry" />
        </mxCell>
        <mxCell id="seu8xqsjH91Jsqb18Nm0-2" value="Event Gateway" style="rounded=0;whiteSpace=wrap;html=1;fillColor=#FFFFFF;strokeColor=#009900;fontColor=#009900;" parent="nsLn4ViY47CWokU0kFmy-3" vertex="1">
          <mxGeometry x="39.68500000000002" y="286" width="157.48" height="21" as="geometry" />
        </mxCell>
        <mxCell id="seu8xqsjH91Jsqb18Nm0-3" value="Event Endpoint Manager" style="rounded=0;whiteSpace=wrap;html=1;fillColor=#FFFFFF;strokeColor=#009900;fontColor=#009900;" parent="nsLn4ViY47CWokU0kFmy-3" vertex="1">
          <mxGeometry x="39.68500000000002" y="310" width="157.48" height="21" as="geometry" />
        </mxCell>
        <mxCell id="nsLn4ViY47CWokU0kFmy-4" value="VPC" style="shape=mxgraph.ibm.box;prType=vpc;fontStyle=0;verticalAlign=top;align=left;spacingLeft=32;spacingTop=4;fillColor=none;rounded=0;whiteSpace=wrap;html=1;strokeColor=#4376BB;strokeWidth=2;dashed=0;container=1;spacing=-4;collapsible=0;expand=0;recursiveResize=0;fontColor=#000000;" parent="1" vertex="1">
          <mxGeometry x="65" y="710" width="200" height="70" as="geometry" />
        </mxCell>
        <mxCell id="nsLn4ViY47CWokU0kFmy-5" value="Classic Infrastructure" style="shape=mxgraph.ibm.box;prType=classic;fontStyle=0;verticalAlign=top;align=left;spacingLeft=32;spacingTop=4;fillColor=none;rounded=0;whiteSpace=wrap;html=1;strokeColor=#4376BB;strokeWidth=2;dashed=0;container=1;spacing=-4;collapsible=0;expand=0;recursiveResize=0;fontColor=#000000;" parent="1" vertex="1">
          <mxGeometry x="385" y="710" width="200" height="70" as="geometry" />
        </mxCell>
        <mxCell id="nsLn4ViY47CWokU0kFmy-6" value="OR" style="text;html=1;strokeColor=none;fillColor=none;align=center;verticalAlign=middle;whiteSpace=wrap;rounded=0;fontColor=#000000;" parent="1" vertex="1">
          <mxGeometry x="295" y="730" width="60" height="30" as="geometry" />
        </mxCell>
        <mxCell id="1tfUE89n-SpSm_Kpjp4D-43" value="Management restore task" style="rounded=0;whiteSpace=wrap;html=1;fillColor=#FFFFFF;strokeColor=#009900;fontColor=#009900;" parent="1" vertex="1">
          <mxGeometry x="782.84" y="600" width="177.165" height="21" as="geometry" />
        </mxCell>
        <mxCell id="1tfUE89n-SpSm_Kpjp4D-44" value="Analytics backup task" style="rounded=0;whiteSpace=wrap;html=1;fillColor=#FFFFFF;strokeColor=#009900;fontColor=#009900;" parent="1" vertex="1">
          <mxGeometry x="782.84" y="624" width="177.165" height="21" as="geometry" />
        </mxCell>
        <mxCell id="1tfUE89n-SpSm_Kpjp4D-51" value="Analytics restore task" style="rounded=0;whiteSpace=wrap;html=1;fillColor=#FFFFFF;strokeColor=#009900;fontColor=#009900;" parent="1" vertex="1">
          <mxGeometry x="782.84" y="648" width="177.165" height="21" as="geometry" />
        </mxCell>
        <mxCell id="1tfUE89n-SpSm_Kpjp4D-52" value="Management backup task" style="rounded=0;whiteSpace=wrap;html=1;fillColor=#FFFFFF;strokeColor=#009900;fontColor=#009900;" parent="1" vertex="1">
          <mxGeometry x="782.84" y="672" width="177.165" height="21" as="geometry" />
        </mxCell>
        <mxCell id="1tfUE89n-SpSm_Kpjp4D-60" value="Management DB upgrade task" style="rounded=0;whiteSpace=wrap;html=1;fillColor=#FFFFFF;strokeColor=#009900;fontColor=#009900;" parent="1" vertex="1">
          <mxGeometry x="782.84" y="696" width="177.165" height="21" as="geometry" />
        </mxCell>
        <mxCell id="1tfUE89n-SpSm_Kpjp4D-61" value="Management secret rotation task" style="rounded=0;whiteSpace=wrap;html=1;fillColor=#FFFFFF;strokeColor=#009900;fontColor=#009900;" parent="1" vertex="1">
          <mxGeometry x="782.84" y="720" width="177.165" height="21" as="geometry" />
        </mxCell>
        <mxCell id="1tfUE89n-SpSm_Kpjp4D-62" value="Portal backup task" style="rounded=0;whiteSpace=wrap;html=1;fillColor=#FFFFFF;strokeColor=#009900;fontColor=#009900;" parent="1" vertex="1">
          <mxGeometry x="782.84" y="744" width="177.165" height="21" as="geometry" />
        </mxCell>
        <mxCell id="1tfUE89n-SpSm_Kpjp4D-71" value="Portal restore task" style="rounded=0;whiteSpace=wrap;html=1;fillColor=#FFFFFF;strokeColor=#009900;fontColor=#009900;" parent="1" vertex="1">
          <mxGeometry x="782.84" y="769" width="177.165" height="21" as="geometry" />
        </mxCell>
        <mxCell id="1tfUE89n-SpSm_Kpjp4D-72" value="Portal secret rotation task" style="rounded=0;whiteSpace=wrap;html=1;fillColor=#FFFFFF;strokeColor=#009900;fontColor=#009900;" parent="1" vertex="1">
          <mxGeometry x="782.84" y="793" width="177.165" height="21" as="geometry" />
        </mxCell>
      </root>
    </mxGraphModel>
  </diagram>
  <diagram id="g26Yq_MzOZSGEQxacyZF" name="Operators view">
    <mxGraphModel dx="1840" dy="1089" grid="1" gridSize="10" guides="1" tooltips="1" connect="1" arrows="1" fold="1" page="1" pageScale="1" pageWidth="1169" pageHeight="827" math="0" shadow="0">
      <root>
        <mxCell id="0" />
        <mxCell id="1" parent="0" />
        <mxCell id="EYeZwVZ9M_nUBtfvYq7x-1" value="IBM Cloud" style="shape=mxgraph.ibm.box;prType=cloud;fontStyle=0;verticalAlign=top;align=left;spacingLeft=32;spacingTop=4;fillColor=none;rounded=0;whiteSpace=wrap;html=1;strokeColor=#4376BB;strokeWidth=3;dashed=0;container=1;spacing=-4;collapsible=0;expand=0;recursiveResize=0;" parent="1" vertex="1">
          <mxGeometry x="40" y="30" width="920" height="560" as="geometry" />
        </mxCell>
        <mxCell id="EYeZwVZ9M_nUBtfvYq7x-2" value="Region eu-de (Frankfurt)" style="shape=mxgraph.ibm.box;prType=region;fontStyle=0;verticalAlign=top;align=left;spacingLeft=32;spacingTop=4;fillColor=none;rounded=0;whiteSpace=wrap;html=1;strokeColor=#919191;strokeWidth=2;dashed=0;container=1;spacing=-4;collapsible=0;expand=0;recursiveResize=0;" parent="EYeZwVZ9M_nUBtfvYq7x-1" vertex="1">
          <mxGeometry x="25" y="31" width="890" height="520" as="geometry" />
        </mxCell>
        <mxCell id="EYeZwVZ9M_nUBtfvYq7x-3" value="RedHat OpenShift Kubernetes Services - ROKS" style="rounded=0;whiteSpace=wrap;html=1;fillColor=#000000;fontColor=#FFFFFF;fontStyle=1" parent="EYeZwVZ9M_nUBtfvYq7x-2" vertex="1">
          <mxGeometry x="10" y="485" width="870" height="20" as="geometry" />
        </mxCell>
        <mxCell id="EYeZwVZ9M_nUBtfvYq7x-4" value="namespace: cp4i" style="rounded=0;whiteSpace=wrap;html=1;fontColor=#000000;fillColor=#FFFFFF;align=left;verticalAlign=top;" parent="EYeZwVZ9M_nUBtfvYq7x-2" vertex="1">
          <mxGeometry x="10" y="30" width="870" height="150" as="geometry" />
        </mxCell>
        <mxCell id="EYeZwVZ9M_nUBtfvYq7x-5" value="namespace: ibm-licensing" style="rounded=0;whiteSpace=wrap;html=1;fontColor=#000000;fillColor=#FFFFFF;align=left;verticalAlign=top;" parent="EYeZwVZ9M_nUBtfvYq7x-2" vertex="1">
          <mxGeometry x="215" y="204" width="225" height="81" as="geometry" />
        </mxCell>
        <mxCell id="EYeZwVZ9M_nUBtfvYq7x-6" value="namespace:&amp;nbsp;ibm-common-services&amp;nbsp;" style="rounded=0;whiteSpace=wrap;html=1;fontColor=#000000;fillColor=#FFFFFF;align=left;verticalAlign=top;" parent="EYeZwVZ9M_nUBtfvYq7x-2" vertex="1">
          <mxGeometry x="10" y="204" width="200" height="76" as="geometry" />
        </mxCell>
        <mxCell id="EYeZwVZ9M_nUBtfvYq7x-48" value="ibm-integration-platform-navigator" style="rounded=0;whiteSpace=wrap;html=1;fillColor=#FFFFFF;strokeColor=#FF0000;fontColor=#FF0000;" parent="EYeZwVZ9M_nUBtfvYq7x-2" vertex="1">
          <mxGeometry x="29.15" y="63" width="196.85" height="21" as="geometry" />
        </mxCell>
        <mxCell id="EYeZwVZ9M_nUBtfvYq7x-49" value="ibm-integration-asset-repository" style="rounded=0;whiteSpace=wrap;html=1;fillColor=#FFFFFF;strokeColor=#FF0000;fontColor=#FF0000;" parent="EYeZwVZ9M_nUBtfvYq7x-2" vertex="1">
          <mxGeometry x="245" y="63" width="196.85" height="21" as="geometry" />
        </mxCell>
        <mxCell id="EYeZwVZ9M_nUBtfvYq7x-50" value="ibm-common-service-operator" style="rounded=0;whiteSpace=wrap;html=1;fillColor=#FFFFFF;strokeColor=#FF0000;fontColor=#FF0000;" parent="EYeZwVZ9M_nUBtfvYq7x-2" vertex="1">
          <mxGeometry x="465" y="63" width="196.85" height="21" as="geometry" />
        </mxCell>
        <mxCell id="EYeZwVZ9M_nUBtfvYq7x-51" value="ibm-eventendpointmanagement" style="rounded=0;whiteSpace=wrap;html=1;fillColor=#FFFFFF;strokeColor=#FF0000;fontColor=#FF0000;" parent="EYeZwVZ9M_nUBtfvYq7x-2" vertex="1">
          <mxGeometry x="673.15" y="63" width="196.85" height="21" as="geometry" />
        </mxCell>
        <mxCell id="EYeZwVZ9M_nUBtfvYq7x-52" value="ibm-eventautomation-flink" style="rounded=0;whiteSpace=wrap;html=1;fillColor=#FFFFFF;strokeColor=#FF0000;fontColor=#FF0000;" parent="EYeZwVZ9M_nUBtfvYq7x-2" vertex="1">
          <mxGeometry x="29.15" y="104" width="196.85" height="21" as="geometry" />
        </mxCell>
        <mxCell id="EYeZwVZ9M_nUBtfvYq7x-53" value="cloud-native-postgresql" style="rounded=0;whiteSpace=wrap;html=1;fillColor=#FFFFFF;strokeColor=#FF0000;fontColor=#FF0000;" parent="EYeZwVZ9M_nUBtfvYq7x-2" vertex="1">
          <mxGeometry x="235" y="104" width="196.85" height="21" as="geometry" />
        </mxCell>
        <mxCell id="EYeZwVZ9M_nUBtfvYq7x-54" value="ibm-eventprocessing" style="rounded=0;whiteSpace=wrap;html=1;fillColor=#FFFFFF;strokeColor=#FF0000;fontColor=#FF0000;" parent="EYeZwVZ9M_nUBtfvYq7x-2" vertex="1">
          <mxGeometry x="445" y="104" width="196.85" height="21" as="geometry" />
        </mxCell>
        <mxCell id="EYeZwVZ9M_nUBtfvYq7x-55" value="datapower-operator" style="rounded=0;whiteSpace=wrap;html=1;fillColor=#FFFFFF;strokeColor=#FF0000;fontColor=#FF0000;" parent="EYeZwVZ9M_nUBtfvYq7x-2" vertex="1">
          <mxGeometry x="673.15" y="104" width="196.85" height="21" as="geometry" />
        </mxCell>
        <mxCell id="EYeZwVZ9M_nUBtfvYq7x-56" value="ibm-eventstreams" style="rounded=0;whiteSpace=wrap;html=1;fillColor=#FFFFFF;strokeColor=#FF0000;fontColor=#FF0000;" parent="EYeZwVZ9M_nUBtfvYq7x-2" vertex="1">
          <mxGeometry x="26.15" y="144" width="130.85" height="21" as="geometry" />
        </mxCell>
        <mxCell id="EYeZwVZ9M_nUBtfvYq7x-57" value="ibm-apiconnect" style="rounded=0;whiteSpace=wrap;html=1;fillColor=#FFFFFF;strokeColor=#FF0000;fontColor=#FF0000;" parent="EYeZwVZ9M_nUBtfvYq7x-2" vertex="1">
          <mxGeometry x="172" y="144" width="130.85" height="21" as="geometry" />
        </mxCell>
        <mxCell id="EYeZwVZ9M_nUBtfvYq7x-58" value="ibm-appconnect" style="rounded=0;whiteSpace=wrap;html=1;fillColor=#FFFFFF;strokeColor=#FF0000;fontColor=#FF0000;" parent="EYeZwVZ9M_nUBtfvYq7x-2" vertex="1">
          <mxGeometry x="311.15" y="144" width="130.85" height="21" as="geometry" />
        </mxCell>
        <mxCell id="EYeZwVZ9M_nUBtfvYq7x-59" value="rhbk-operator" style="rounded=0;whiteSpace=wrap;html=1;fillColor=#FFFFFF;strokeColor=#FF0000;fontColor=#FF0000;" parent="EYeZwVZ9M_nUBtfvYq7x-2" vertex="1">
          <mxGeometry x="451" y="144" width="130.85" height="21" as="geometry" />
        </mxCell>
        <mxCell id="EYeZwVZ9M_nUBtfvYq7x-60" value="ibm-odlm" style="rounded=0;whiteSpace=wrap;html=1;fillColor=#FFFFFF;strokeColor=#FF0000;fontColor=#FF0000;" parent="EYeZwVZ9M_nUBtfvYq7x-2" vertex="1">
          <mxGeometry x="602" y="144" width="130.85" height="21" as="geometry" />
        </mxCell>
        <mxCell id="EYeZwVZ9M_nUBtfvYq7x-61" value="ibm-mq" style="rounded=0;whiteSpace=wrap;html=1;fillColor=#FFFFFF;strokeColor=#FF0000;fontColor=#FF0000;" parent="EYeZwVZ9M_nUBtfvYq7x-2" vertex="1">
          <mxGeometry x="739.15" y="144" width="130.85" height="21" as="geometry" />
        </mxCell>
        <mxCell id="EYeZwVZ9M_nUBtfvYq7x-64" value="namespace: ldap" style="rounded=0;whiteSpace=wrap;html=1;fontColor=#000000;fillColor=#FFFFFF;align=left;verticalAlign=top;" parent="EYeZwVZ9M_nUBtfvYq7x-2" vertex="1">
          <mxGeometry x="451" y="204" width="150" height="81" as="geometry" />
        </mxCell>
        <mxCell id="EYeZwVZ9M_nUBtfvYq7x-65" value="ibm-licensing-operator-app" style="rounded=0;whiteSpace=wrap;html=1;fillColor=#FFFFFF;strokeColor=#FF0000;fontColor=#FF0000;" parent="EYeZwVZ9M_nUBtfvYq7x-2" vertex="1">
          <mxGeometry x="235" y="244.5" width="196.85" height="21" as="geometry" />
        </mxCell>
        <mxCell id="EYeZwVZ9M_nUBtfvYq7x-88" value="namespace: openshift-operators" style="rounded=0;whiteSpace=wrap;html=1;fontColor=#000000;fillColor=#FFFFFF;align=left;verticalAlign=top;" parent="EYeZwVZ9M_nUBtfvYq7x-2" vertex="1">
          <mxGeometry x="16.58" y="290" width="863.42" height="170" as="geometry" />
        </mxCell>
        <mxCell id="MCcOXh8MSibDvR-jb5nl-1" value="namespace: cert-manager" style="rounded=0;whiteSpace=wrap;html=1;fontColor=#000000;fillColor=#FFFFFF;align=left;verticalAlign=top;" parent="EYeZwVZ9M_nUBtfvYq7x-2" vertex="1">
          <mxGeometry x="615" y="201.5" width="150" height="81" as="geometry" />
        </mxCell>
        <mxCell id="MCcOXh8MSibDvR-jb5nl-2" value="cert-manager" style="rounded=0;whiteSpace=wrap;html=1;fillColor=#FFFFFF;strokeColor=#FF0000;fontColor=#FF0000;" parent="EYeZwVZ9M_nUBtfvYq7x-2" vertex="1">
          <mxGeometry x="635" y="234" width="115" height="21" as="geometry" />
        </mxCell>
      </root>
    </mxGraphModel>
  </diagram>
  <diagram id="oYA6_6Ym801ekZOoSG76" name="Design code">
    <mxGraphModel dx="1840" dy="1089" grid="1" gridSize="10" guides="1" tooltips="1" connect="1" arrows="1" fold="1" page="1" pageScale="1" pageWidth="827" pageHeight="1169" math="0" shadow="0">
      <root>
        <mxCell id="0" />
        <mxCell id="1" parent="0" />
        <mxCell id="MjGin5Dh7uQR8jkNlzEJ-2" value="Create_Capabilities(ns)&lt;br&gt;&lt;div&gt;&lt;span style=&quot;&quot;&gt;&lt;/span&gt;&lt;span style=&quot;&quot;&gt;&lt;/span&gt;&lt;span style=&quot;&quot;&gt;&lt;/span&gt;&amp;nbsp; &amp;nbsp; check_create_oc_yaml(octype, name, yaml, ns) [&lt;b&gt;Contains oc apply with envsubst&lt;/b&gt;]&lt;/div&gt;&lt;div&gt;&lt;span style=&quot;&quot;&gt;&#x9;&lt;/span&gt;&lt;span style=&quot;&quot;&gt;&#x9;&lt;/span&gt;&lt;/div&gt;&lt;div&gt;&lt;div style=&quot;border-color: var(--border-color);&quot;&gt;&lt;span style=&quot;&quot;&gt;&lt;span style=&quot;&quot;&gt;&lt;/span&gt;&lt;/span&gt;&lt;span style=&quot;background-color: initial;&quot;&gt;&amp;nbsp; &amp;nbsp;&lt;/span&gt;&lt;span style=&quot;background-color: initial;&quot;&gt;&amp;nbsp;&lt;/span&gt;wait_for_oc_state(octype, ocname, ocstate, ocpath)&lt;/div&gt;&lt;/div&gt;&amp;nbsp; &amp;nbsp; &amp;nbsp; &amp;nbsp; &amp;nbsp;wait_for_state(what, value, command)&lt;br&gt;&amp;nbsp; &amp;nbsp;&amp;nbsp;&lt;div&gt;&lt;span style=&quot;background-color: initial;&quot;&gt;check_resource_availability (octype, name)&lt;/span&gt;&lt;/div&gt;&lt;div&gt;&lt;span style=&quot;background-color: initial;&quot;&gt;&lt;br&gt;&lt;/span&gt;&lt;/div&gt;&lt;div&gt;&lt;span style=&quot;background-color: initial;&quot;&gt;&lt;div&gt;ibm-integration-platform-navigator.openshift-operators&lt;/div&gt;&lt;div&gt;&lt;span style=&quot;&quot;&gt;&lt;/span&gt;&amp;nbsp; rhbk-operator.ibm-common-services&lt;/div&gt;&lt;div&gt;&lt;span style=&quot;&quot;&gt;&lt;/span&gt;&amp;nbsp; &amp;nbsp; cloud-native-postgresql.openshift-operators&lt;/div&gt;&lt;/span&gt;&lt;/div&gt;" style="text;html=1;strokeColor=none;fillColor=none;align=left;verticalAlign=top;whiteSpace=wrap;rounded=0;" parent="1" vertex="1">
          <mxGeometry x="40" y="40" width="570" height="180" as="geometry" />
        </mxCell>
        <mxCell id="6Q7j6Nrw7Aon5TtV7gxB-6" style="edgeStyle=none;rounded=0;orthogonalLoop=1;jettySize=auto;html=1;strokeColor=default;align=center;verticalAlign=middle;fontFamily=Helvetica;fontSize=11;fontColor=default;labelBackgroundColor=default;endArrow=classic;" parent="1" source="6Q7j6Nrw7Aon5TtV7gxB-1" target="6Q7j6Nrw7Aon5TtV7gxB-2" edge="1">
          <mxGeometry relative="1" as="geometry" />
        </mxCell>
        <mxCell id="6Q7j6Nrw7Aon5TtV7gxB-7" style="edgeStyle=none;rounded=0;orthogonalLoop=1;jettySize=auto;html=1;strokeColor=default;align=center;verticalAlign=middle;fontFamily=Helvetica;fontSize=11;fontColor=default;labelBackgroundColor=default;endArrow=classic;" parent="1" source="6Q7j6Nrw7Aon5TtV7gxB-1" target="6Q7j6Nrw7Aon5TtV7gxB-4" edge="1">
          <mxGeometry relative="1" as="geometry" />
        </mxCell>
        <mxCell id="6Q7j6Nrw7Aon5TtV7gxB-1" value="provision.sh" style="rounded=0;whiteSpace=wrap;html=1;" parent="1" vertex="1">
          <mxGeometry x="340" y="290" width="120" height="60" as="geometry" />
        </mxCell>
        <mxCell id="6Q7j6Nrw7Aon5TtV7gxB-2" value="cp4i.properties" style="rounded=0;whiteSpace=wrap;html=1;" parent="1" vertex="1">
          <mxGeometry x="340" y="400" width="120" height="60" as="geometry" />
        </mxCell>
        <mxCell id="6Q7j6Nrw7Aon5TtV7gxB-3" value="script-parameters.properties" style="rounded=0;whiteSpace=wrap;html=1;" parent="1" vertex="1">
          <mxGeometry x="150" y="400" width="120" height="60" as="geometry" />
        </mxCell>
        <mxCell id="6Q7j6Nrw7Aon5TtV7gxB-4" value="versions.properties" style="rounded=0;whiteSpace=wrap;html=1;" parent="1" vertex="1">
          <mxGeometry x="520" y="400" width="120" height="60" as="geometry" />
        </mxCell>
        <mxCell id="6Q7j6Nrw7Aon5TtV7gxB-5" style="rounded=0;orthogonalLoop=1;jettySize=auto;html=1;" parent="1" source="6Q7j6Nrw7Aon5TtV7gxB-1" target="6Q7j6Nrw7Aon5TtV7gxB-3" edge="1">
          <mxGeometry relative="1" as="geometry" />
        </mxCell>
        <mxCell id="6Q7j6Nrw7Aon5TtV7gxB-8" value="Input parameters for controling the behavior of the provision" style="text;html=1;align=center;verticalAlign=middle;whiteSpace=wrap;rounded=0;fontFamily=Helvetica;fontSize=11;fontColor=default;labelBackgroundColor=default;" parent="1" vertex="1">
          <mxGeometry x="150" y="480" width="120" height="80" as="geometry" />
        </mxCell>
        <mxCell id="6Q7j6Nrw7Aon5TtV7gxB-9" value="properties for each components" style="text;html=1;align=center;verticalAlign=middle;whiteSpace=wrap;rounded=0;fontFamily=Helvetica;fontSize=11;fontColor=default;labelBackgroundColor=default;" parent="1" vertex="1">
          <mxGeometry x="340" y="480" width="120" height="80" as="geometry" />
        </mxCell>
        <mxCell id="6Q7j6Nrw7Aon5TtV7gxB-10" value="versions for each components" style="text;html=1;align=center;verticalAlign=middle;whiteSpace=wrap;rounded=0;fontFamily=Helvetica;fontSize=11;fontColor=default;labelBackgroundColor=default;" parent="1" vertex="1">
          <mxGeometry x="520" y="480" width="120" height="80" as="geometry" />
        </mxCell>
      </root>
    </mxGraphModel>
  </diagram>
  <diagram id="8wNfLeNThi20D-himaWw" name="Architecture">
    <mxGraphModel dx="1749" dy="1024" grid="1" gridSize="10" guides="1" tooltips="1" connect="1" arrows="1" fold="1" page="1" pageScale="1" pageWidth="1169" pageHeight="827" math="0" shadow="0">
      <root>
        <mxCell id="0" />
        <mxCell id="1" parent="0" />
        <mxCell id="flnhZq-FwbGgtsd0HrOw-1" value="WAS" style="rounded=0;whiteSpace=wrap;html=1;verticalAlign=top;" parent="1" vertex="1">
          <mxGeometry x="440" y="120" width="140" height="90" as="geometry" />
        </mxCell>
        <mxCell id="flnhZq-FwbGgtsd0HrOw-2" value="&lt;i&gt;Order JAX -RS&lt;/i&gt;" style="rounded=0;whiteSpace=wrap;html=1;verticalAlign=top;" parent="1" vertex="1">
          <mxGeometry x="465" y="150" width="90" height="50" as="geometry" />
        </mxCell>
        <mxCell id="flnhZq-FwbGgtsd0HrOw-3" value="Event Streams" style="rounded=0;whiteSpace=wrap;html=1;verticalAlign=top;" parent="1" vertex="1">
          <mxGeometry x="640" y="280" width="500" height="120" as="geometry" />
        </mxCell>
        <mxCell id="flnhZq-FwbGgtsd0HrOw-4" value="Kafka Connect" style="rounded=0;whiteSpace=wrap;html=1;verticalAlign=top;" parent="1" vertex="1">
          <mxGeometry x="1010" y="312" width="110" height="70" as="geometry" />
        </mxCell>
        <mxCell id="flnhZq-FwbGgtsd0HrOw-5" value="Kafka Connector" style="rounded=0;whiteSpace=wrap;html=1;verticalAlign=top;" parent="1" vertex="1">
          <mxGeometry x="770" y="312" width="110" height="70" as="geometry" />
        </mxCell>
        <mxCell id="flnhZq-FwbGgtsd0HrOw-6" value="Topic&lt;div&gt;&lt;i&gt;LH.Orders&lt;/i&gt;&lt;/div&gt;" style="rounded=0;whiteSpace=wrap;html=1;verticalAlign=top;" parent="1" vertex="1">
          <mxGeometry x="650" y="312" width="110" height="70" as="geometry" />
        </mxCell>
        <mxCell id="flnhZq-FwbGgtsd0HrOw-7" value="EventEndpoi&lt;span style=&quot;background-color: initial;&quot;&gt;ntManagement&lt;/span&gt;" style="rounded=0;whiteSpace=wrap;html=1;verticalAlign=top;" parent="1" vertex="1">
          <mxGeometry x="440" y="280" width="190" height="120" as="geometry" />
        </mxCell>
        <mxCell id="flnhZq-FwbGgtsd0HrOw-8" value="TopicConnection&lt;div&gt;&lt;i&gt;LH.Orders&lt;/i&gt;&lt;/div&gt;" style="rounded=0;whiteSpace=wrap;html=1;verticalAlign=top;" parent="1" vertex="1">
          <mxGeometry x="480" y="312" width="110" height="70" as="geometry" />
        </mxCell>
        <mxCell id="flnhZq-FwbGgtsd0HrOw-9" value="API Connect" style="rounded=0;whiteSpace=wrap;html=1;verticalAlign=top;" parent="1" vertex="1">
          <mxGeometry x="240" y="258" width="110" height="178" as="geometry" />
        </mxCell>
        <mxCell id="flnhZq-FwbGgtsd0HrOw-12" style="rounded=0;orthogonalLoop=1;jettySize=auto;html=1;entryX=0.01;entryY=0.658;entryDx=0;entryDy=0;entryPerimeter=0;" parent="1" source="flnhZq-FwbGgtsd0HrOw-10" target="flnhZq-FwbGgtsd0HrOw-2" edge="1">
          <mxGeometry relative="1" as="geometry">
            <mxPoint x="570" y="140" as="targetPoint" />
          </mxGeometry>
        </mxCell>
        <mxCell id="flnhZq-FwbGgtsd0HrOw-10" value="REST&amp;nbsp;API&lt;div&gt;&lt;i&gt;Orders&lt;/i&gt;&lt;/div&gt;" style="rounded=0;whiteSpace=wrap;html=1;" parent="1" vertex="1">
          <mxGeometry x="255" y="288" width="80" height="30" as="geometry" />
        </mxCell>
        <mxCell id="flnhZq-FwbGgtsd0HrOw-13" style="edgeStyle=none;rounded=0;orthogonalLoop=1;jettySize=auto;html=1;strokeColor=default;align=center;verticalAlign=middle;fontFamily=Helvetica;fontSize=11;fontColor=default;labelBackgroundColor=default;endArrow=classic;" parent="1" source="flnhZq-FwbGgtsd0HrOw-11" target="flnhZq-FwbGgtsd0HrOw-8" edge="1">
          <mxGeometry relative="1" as="geometry" />
        </mxCell>
        <mxCell id="flnhZq-FwbGgtsd0HrOw-11" value="ASYNC API&lt;div&gt;&lt;i&gt;Orders&lt;/i&gt;&lt;/div&gt;" style="rounded=0;whiteSpace=wrap;html=1;" parent="1" vertex="1">
          <mxGeometry x="255" y="340" width="80" height="30" as="geometry" />
        </mxCell>
        <mxCell id="flnhZq-FwbGgtsd0HrOw-14" value="EventProcessing" style="rounded=0;whiteSpace=wrap;html=1;verticalAlign=top;" parent="1" vertex="1">
          <mxGeometry x="440" y="540" width="190" height="120" as="geometry" />
        </mxCell>
        <mxCell id="flnhZq-FwbGgtsd0HrOw-16" style="edgeStyle=none;rounded=0;orthogonalLoop=1;jettySize=auto;html=1;entryX=0.5;entryY=1;entryDx=0;entryDy=0;strokeColor=default;align=center;verticalAlign=middle;fontFamily=Helvetica;fontSize=11;fontColor=default;labelBackgroundColor=default;endArrow=classic;" parent="1" source="flnhZq-FwbGgtsd0HrOw-15" target="flnhZq-FwbGgtsd0HrOw-8" edge="1">
          <mxGeometry relative="1" as="geometry" />
        </mxCell>
        <mxCell id="flnhZq-FwbGgtsd0HrOw-15" value="Flow&lt;div&gt;&lt;i&gt;LH.Orders&lt;/i&gt;&lt;/div&gt;" style="rounded=0;whiteSpace=wrap;html=1;verticalAlign=top;" parent="1" vertex="1">
          <mxGeometry x="480" y="570" width="110" height="70" as="geometry" />
        </mxCell>
        <mxCell id="flnhZq-FwbGgtsd0HrOw-17" value="AppConnectEntreprise" style="rounded=0;whiteSpace=wrap;html=1;verticalAlign=top;" parent="1" vertex="1">
          <mxGeometry x="650" y="540" width="190" height="120" as="geometry" />
        </mxCell>
        <mxCell id="flnhZq-FwbGgtsd0HrOw-29" style="edgeStyle=none;rounded=0;orthogonalLoop=1;jettySize=auto;html=1;strokeColor=default;align=center;verticalAlign=middle;fontFamily=Helvetica;fontSize=11;fontColor=default;labelBackgroundColor=default;endArrow=classic;" parent="1" source="flnhZq-FwbGgtsd0HrOw-18" target="flnhZq-FwbGgtsd0HrOw-28" edge="1">
          <mxGeometry relative="1" as="geometry" />
        </mxCell>
        <mxCell id="flnhZq-FwbGgtsd0HrOw-18" value="Flow&lt;div&gt;&lt;i&gt;OrdersToExcel&lt;/i&gt;&lt;/div&gt;&lt;div&gt;&lt;i&gt;SalesForce&lt;/i&gt;&lt;/div&gt;" style="rounded=0;whiteSpace=wrap;html=1;verticalAlign=top;fillColor=#fff2cc;strokeColor=#d6b656;" parent="1" vertex="1">
          <mxGeometry x="690" y="575" width="110" height="70" as="geometry" />
        </mxCell>
        <mxCell id="flnhZq-FwbGgtsd0HrOw-19" value="MQ" style="rounded=0;whiteSpace=wrap;html=1;verticalAlign=top;" parent="1" vertex="1">
          <mxGeometry x="850" y="540" width="190" height="120" as="geometry" />
        </mxCell>
        <mxCell id="flnhZq-FwbGgtsd0HrOw-20" value="QM&lt;div&gt;&lt;i&gt;-&lt;/i&gt;&lt;/div&gt;" style="rounded=0;whiteSpace=wrap;html=1;verticalAlign=top;" parent="1" vertex="1">
          <mxGeometry x="890" y="575" width="110" height="70" as="geometry" />
        </mxCell>
        <mxCell id="flnhZq-FwbGgtsd0HrOw-21" value="Database" style="rounded=0;whiteSpace=wrap;html=1;verticalAlign=top;fillColor=default;strokeColor=default;align=center;fontFamily=Helvetica;fontSize=12;fontColor=default;" parent="1" vertex="1">
          <mxGeometry x="875" y="810" width="140" height="70" as="geometry" />
        </mxCell>
        <mxCell id="flnhZq-FwbGgtsd0HrOw-22" value="WAS" style="rounded=0;whiteSpace=wrap;html=1;verticalAlign=top;" parent="1" vertex="1">
          <mxGeometry x="910" y="414" width="140" height="100" as="geometry" />
        </mxCell>
        <mxCell id="flnhZq-FwbGgtsd0HrOw-23" value="App 1" style="rounded=0;whiteSpace=wrap;html=1;verticalAlign=top;fillColor=#fff2cc;strokeColor=#d6b656;" parent="1" vertex="1">
          <mxGeometry x="935" y="444" width="90" height="50" as="geometry" />
        </mxCell>
        <mxCell id="flnhZq-FwbGgtsd0HrOw-24" value="WAS" style="rounded=0;whiteSpace=wrap;html=1;verticalAlign=top;" parent="1" vertex="1">
          <mxGeometry x="875" y="690" width="140" height="100" as="geometry" />
        </mxCell>
        <mxCell id="flnhZq-FwbGgtsd0HrOw-25" value="App 2" style="rounded=0;whiteSpace=wrap;html=1;verticalAlign=top;fillColor=#fff2cc;strokeColor=#d6b656;" parent="1" vertex="1">
          <mxGeometry x="900" y="720" width="90" height="50" as="geometry" />
        </mxCell>
        <mxCell id="flnhZq-FwbGgtsd0HrOw-27" style="edgeStyle=none;rounded=0;orthogonalLoop=1;jettySize=auto;html=1;entryX=0.5;entryY=0;entryDx=0;entryDy=0;strokeColor=default;align=center;verticalAlign=middle;fontFamily=Helvetica;fontSize=11;fontColor=default;labelBackgroundColor=default;endArrow=classic;" parent="1" source="flnhZq-FwbGgtsd0HrOw-26" target="flnhZq-FwbGgtsd0HrOw-18" edge="1">
          <mxGeometry relative="1" as="geometry" />
        </mxCell>
        <mxCell id="flnhZq-FwbGgtsd0HrOw-26" value="ACE API" style="rounded=0;whiteSpace=wrap;html=1;fillColor=#fff2cc;strokeColor=#d6b656;" parent="1" vertex="1">
          <mxGeometry x="255" y="391" width="80" height="30" as="geometry" />
        </mxCell>
        <mxCell id="flnhZq-FwbGgtsd0HrOw-28" value="SalesForce" style="rounded=0;whiteSpace=wrap;html=1;verticalAlign=top;" parent="1" vertex="1">
          <mxGeometry x="650" y="810" width="190" height="70" as="geometry" />
        </mxCell>
        <mxCell id="flnhZq-FwbGgtsd0HrOw-30" value="&lt;div style=&quot;font-size: 14px;&quot;&gt;&lt;b&gt;&lt;u&gt;Scénarios&lt;/u&gt;&lt;/b&gt;&lt;br style=&quot;font-size: 14px;&quot;&gt;&lt;/div&gt;&lt;div style=&quot;font-size: 14px;&quot;&gt;1) Async API (APIC -&amp;gt; EEM -&amp;gt; ES) + EP -&amp;gt; EEM -&amp;gt; ES&lt;div style=&quot;font-size: 14px;&quot;&gt;2) ACE API -&amp;gt; ACE Flow -&amp;gt; Sales Force&lt;/div&gt;&lt;div style=&quot;font-size: 14px;&quot;&gt;3) App1 -&amp;gt; MQ -&amp;gt; App2 -&amp;gt; Kafka&lt;/div&gt;&lt;div style=&quot;font-size: 14px;&quot;&gt;&lt;br style=&quot;font-size: 14px;&quot;&gt;&lt;/div&gt;&lt;div style=&quot;font-size: 14px;&quot;&gt;Instana&lt;/div&gt;&lt;div style=&quot;font-size: 14px;&quot;&gt;Monitoring &quot;transverse&quot;&lt;/div&gt;&lt;/div&gt;" style="text;html=1;align=left;verticalAlign=top;whiteSpace=wrap;rounded=0;fontFamily=Helvetica;fontSize=14;fontColor=default;labelBackgroundColor=default;" parent="1" vertex="1">
          <mxGeometry x="20" y="530" width="390" height="130" as="geometry" />
        </mxCell>
        <mxCell id="flnhZq-FwbGgtsd0HrOw-31" value="Instana" style="rounded=0;whiteSpace=wrap;html=1;verticalAlign=top;fillColor=#fff2cc;strokeColor=#d6b656;" parent="1" vertex="1">
          <mxGeometry x="850" y="170" width="190" height="70" as="geometry" />
        </mxCell>
        <mxCell id="flnhZq-FwbGgtsd0HrOw-32" value="Derby ou Postgre" style="rounded=0;whiteSpace=wrap;html=1;verticalAlign=top;fillColor=#fff2cc;strokeColor=#d6b656;align=center;fontFamily=Helvetica;fontSize=12;" parent="1" vertex="1">
          <mxGeometry x="895" y="840" width="100" height="30" as="geometry" />
        </mxCell>
        <mxCell id="flnhZq-FwbGgtsd0HrOw-34" style="edgeStyle=none;rounded=0;orthogonalLoop=1;jettySize=auto;html=1;strokeColor=default;align=center;verticalAlign=middle;fontFamily=Helvetica;fontSize=11;fontColor=default;labelBackgroundColor=default;endArrow=classic;entryX=0.542;entryY=0.017;entryDx=0;entryDy=0;entryPerimeter=0;" parent="1" source="flnhZq-FwbGgtsd0HrOw-33" target="flnhZq-FwbGgtsd0HrOw-6" edge="1">
          <mxGeometry relative="1" as="geometry" />
        </mxCell>
        <mxCell id="flnhZq-FwbGgtsd0HrOw-33" value="Workstation&lt;div&gt;&lt;i&gt;Java Client&lt;/i&gt;&lt;/div&gt;" style="rounded=0;whiteSpace=wrap;html=1;verticalAlign=top;" parent="1" vertex="1">
          <mxGeometry x="640" y="110" width="140" height="60" as="geometry" />
        </mxCell>
        <mxCell id="flnhZq-FwbGgtsd0HrOw-35" style="edgeStyle=none;rounded=0;orthogonalLoop=1;jettySize=auto;html=1;entryX=0.586;entryY=0.038;entryDx=0;entryDy=0;entryPerimeter=0;strokeColor=default;align=center;verticalAlign=middle;fontFamily=Helvetica;fontSize=11;fontColor=default;labelBackgroundColor=default;endArrow=classic;" parent="1" source="flnhZq-FwbGgtsd0HrOw-33" target="flnhZq-FwbGgtsd0HrOw-8" edge="1">
          <mxGeometry relative="1" as="geometry" />
        </mxCell>
        <mxCell id="flnhZq-FwbGgtsd0HrOw-36" value="License Service&lt;div&gt;&lt;div&gt;License reporter&lt;/div&gt;&lt;/div&gt;" style="rounded=0;whiteSpace=wrap;html=1;verticalAlign=top;" parent="1" vertex="1">
          <mxGeometry x="440" y="810" width="140" height="80" as="geometry" />
        </mxCell>
        <mxCell id="flnhZq-FwbGgtsd0HrOw-37" value="Instana on Cloud&lt;div&gt;OpenTelemetry&lt;/div&gt;" style="rounded=0;whiteSpace=wrap;html=1;verticalAlign=top;" parent="1" vertex="1">
          <mxGeometry x="850" y="70" width="190" height="70" as="geometry" />
        </mxCell>
        <mxCell id="SA-g-PLbYm2g3xsOlAVU-3" value="MQ Sink" style="rounded=0;whiteSpace=wrap;html=1;verticalAlign=top;" parent="1" vertex="1">
          <mxGeometry x="780" y="344" width="90" height="26" as="geometry" />
        </mxCell>
        <mxCell id="SA-g-PLbYm2g3xsOlAVU-1" style="rounded=0;orthogonalLoop=1;jettySize=auto;html=1;entryX=0.5;entryY=0;entryDx=0;entryDy=0;" parent="1" source="SA-g-PLbYm2g3xsOlAVU-3" target="flnhZq-FwbGgtsd0HrOw-20" edge="1">
          <mxGeometry relative="1" as="geometry" />
        </mxCell>
        <mxCell id="LMlduynwDklwnzTsW3_k-1" value="Kafka Connector" style="rounded=0;whiteSpace=wrap;html=1;verticalAlign=top;" parent="1" vertex="1">
          <mxGeometry x="890" y="312" width="110" height="70" as="geometry" />
        </mxCell>
        <mxCell id="LMlduynwDklwnzTsW3_k-2" value="Datagen" style="rounded=0;whiteSpace=wrap;html=1;verticalAlign=top;" parent="1" vertex="1">
          <mxGeometry x="900" y="344" width="90" height="26" as="geometry" />
        </mxCell>
        <mxCell id="bjHPBRdrWFLbVFLO6ORm-1" value="LDAP" style="rounded=0;whiteSpace=wrap;html=1;verticalAlign=top;" parent="1" vertex="1">
          <mxGeometry x="280" y="810" width="140" height="81" as="geometry" />
        </mxCell>
        <mxCell id="cebg8li_WZk-S4eATfE6-1" value="KeyCloak" style="rounded=0;whiteSpace=wrap;html=1;verticalAlign=top;" parent="1" vertex="1">
          <mxGeometry x="110" y="810" width="140" height="81" as="geometry" />
        </mxCell>
        <mxCell id="cebg8li_WZk-S4eATfE6-2" value="Loki" style="rounded=0;whiteSpace=wrap;html=1;verticalAlign=top;" parent="1" vertex="1">
          <mxGeometry x="110" y="700" width="140" height="81" as="geometry" />
        </mxCell>
        <mxCell id="2-STAFBK5LXm46DYlYl9-1" value="OADP" style="rounded=0;whiteSpace=wrap;html=1;verticalAlign=top;" parent="1" vertex="1">
          <mxGeometry x="280" y="700" width="140" height="81" as="geometry" />
        </mxCell>
      </root>
    </mxGraphModel>
  </diagram>
  <diagram id="-FBGFo-QPwYAwotHdK8A" name="MQ Demo">
    <mxGraphModel dx="2074" dy="1196" grid="1" gridSize="10" guides="1" tooltips="1" connect="1" arrows="1" fold="1" page="1" pageScale="1" pageWidth="1169" pageHeight="827" math="0" shadow="0">
      <root>
        <mxCell id="0" />
        <mxCell id="1" parent="0" />
        <mxCell id="O9NsVwryFPUBB8-hVzuq-4" value="Cluster MQ" style="rounded=1;whiteSpace=wrap;html=1;verticalAlign=top;dashed=1;" parent="1" vertex="1">
          <mxGeometry x="240" y="250" width="880" height="165" as="geometry" />
        </mxCell>
        <mxCell id="yjUzyFciFq2yw8d2NExL-2" value="ConfigMap&lt;div&gt;mq-uniform-cluster-ini-cm&lt;/div&gt;" style="rounded=0;whiteSpace=wrap;html=1;verticalAlign=top;" parent="1" vertex="1">
          <mxGeometry x="363" y="443.28999999999996" width="187.0075" height="45.2755" as="geometry" />
        </mxCell>
        <mxCell id="yjUzyFciFq2yw8d2NExL-3" value="ConfigMap&lt;div&gt;mq-uniform-cluster-mqsc-cm&lt;/div&gt;" style="rounded=0;whiteSpace=wrap;html=1;verticalAlign=top;" parent="1" vertex="1">
          <mxGeometry x="567" y="443.28999999999996" width="187.0075" height="45.2755" as="geometry" />
        </mxCell>
        <mxCell id="yjUzyFciFq2yw8d2NExL-4" value="ConfigMap&lt;div&gt;mq-uniform-cluster-qm1-mqsc-cm&lt;/div&gt;" style="rounded=0;whiteSpace=wrap;html=1;verticalAlign=top;" parent="1" vertex="1">
          <mxGeometry x="160" y="443.28999999999996" width="187.0075" height="45.2755" as="geometry" />
        </mxCell>
        <mxCell id="yjUzyFciFq2yw8d2NExL-5" value="ConfigMap&lt;div&gt;mq-uniform-cluster-qm2-mqsc-cm&lt;/div&gt;" style="rounded=0;whiteSpace=wrap;html=1;verticalAlign=top;" parent="1" vertex="1">
          <mxGeometry x="770" y="443.28999999999996" width="187.0075" height="45.2755" as="geometry" />
        </mxCell>
        <mxCell id="yjUzyFciFq2yw8d2NExL-7" value="ConfigMap&lt;div&gt;index-html-configmap&lt;/div&gt;" style="rounded=0;whiteSpace=wrap;html=1;verticalAlign=top;" parent="1" vertex="1">
          <mxGeometry x="330" y="636" width="187.0075" height="45.2755" as="geometry" />
        </mxCell>
        <mxCell id="yjUzyFciFq2yw8d2NExL-10" value="&lt;div&gt;Namespace&lt;/div&gt;&lt;div&gt;cp4i-mq&lt;/div&gt;" style="rounded=0;whiteSpace=wrap;html=1;verticalAlign=top;" parent="1" vertex="1">
          <mxGeometry x="635.04" y="70" width="120" height="40" as="geometry" />
        </mxCell>
        <mxCell id="yjUzyFciFq2yw8d2NExL-11" value="&lt;div&gt;Route&lt;/div&gt;&lt;div&gt;qmgr-demo-tls-route&lt;/div&gt;" style="rounded=0;whiteSpace=wrap;html=1;verticalAlign=top;" parent="1" vertex="1">
          <mxGeometry x="160" y="706" width="120" height="45.2755" as="geometry" />
        </mxCell>
        <mxCell id="yjUzyFciFq2yw8d2NExL-12" value="&lt;div&gt;&lt;span style=&quot;background-color: initial;&quot;&gt;Service&lt;/span&gt;&lt;br&gt;&lt;/div&gt;&lt;div&gt;&lt;span style=&quot;background-color: initial;&quot;&gt;qmgr-demo-ibm-mq&lt;br&gt;&lt;/span&gt;&lt;/div&gt;" style="rounded=0;whiteSpace=wrap;html=1;verticalAlign=top;" parent="1" vertex="1">
          <mxGeometry x="160" y="653" width="120" height="45.2755" as="geometry" />
        </mxCell>
        <mxCell id="yjUzyFciFq2yw8d2NExL-13" value="&lt;div&gt;Deployment&lt;br&gt;&lt;/div&gt;&lt;div&gt;&lt;span style=&quot;background-color: initial;&quot;&gt;nginx-deployment&lt;br&gt;&lt;/span&gt;&lt;/div&gt;" style="rounded=0;whiteSpace=wrap;html=1;verticalAlign=top;" parent="1" vertex="1">
          <mxGeometry x="160" y="600" width="120" height="45.2755" as="geometry" />
        </mxCell>
        <mxCell id="O9NsVwryFPUBB8-hVzuq-6" value="uses" style="edgeStyle=orthogonalEdgeStyle;rounded=0;orthogonalLoop=1;jettySize=auto;html=1;" parent="1" source="yjUzyFciFq2yw8d2NExL-15" target="O9NsVwryFPUBB8-hVzuq-5" edge="1">
          <mxGeometry relative="1" as="geometry" />
        </mxCell>
        <mxCell id="yjUzyFciFq2yw8d2NExL-15" value="MQ Client&lt;div&gt;App1&lt;/div&gt;" style="rounded=0;whiteSpace=wrap;html=1;verticalAlign=top;" parent="1" vertex="1">
          <mxGeometry x="550" y="137.35999999999999" width="108.2675" height="45.2755" as="geometry" />
        </mxCell>
        <mxCell id="yjUzyFciFq2yw8d2NExL-19" value="uses" style="edgeStyle=none;rounded=0;orthogonalLoop=1;jettySize=auto;html=1;strokeColor=default;align=center;verticalAlign=middle;fontFamily=Helvetica;fontSize=11;fontColor=default;labelBackgroundColor=default;endArrow=classic;" parent="1" source="yjUzyFciFq2yw8d2NExL-16" target="yjUzyFciFq2yw8d2NExL-2" edge="1">
          <mxGeometry relative="1" as="geometry" />
        </mxCell>
        <mxCell id="yjUzyFciFq2yw8d2NExL-20" style="edgeStyle=none;rounded=0;orthogonalLoop=1;jettySize=auto;html=1;strokeColor=default;align=center;verticalAlign=middle;fontFamily=Helvetica;fontSize=11;fontColor=default;labelBackgroundColor=default;endArrow=classic;" parent="1" source="yjUzyFciFq2yw8d2NExL-16" target="yjUzyFciFq2yw8d2NExL-3" edge="1">
          <mxGeometry relative="1" as="geometry" />
        </mxCell>
        <mxCell id="O9NsVwryFPUBB8-hVzuq-22" value="uses" style="edgeLabel;html=1;align=center;verticalAlign=middle;resizable=0;points=[];" parent="yjUzyFciFq2yw8d2NExL-20" vertex="1" connectable="0">
          <mxGeometry x="-0.1525" y="-4" relative="1" as="geometry">
            <mxPoint as="offset" />
          </mxGeometry>
        </mxCell>
        <mxCell id="yjUzyFciFq2yw8d2NExL-16" value="QueueManager&lt;br&gt;&lt;div&gt;QM1&lt;/div&gt;" style="rounded=0;whiteSpace=wrap;html=1;verticalAlign=top;" parent="1" vertex="1">
          <mxGeometry x="261" y="293.28999999999996" width="187.0075" height="98.425" as="geometry" />
        </mxCell>
        <mxCell id="yjUzyFciFq2yw8d2NExL-21" style="edgeStyle=none;rounded=0;orthogonalLoop=1;jettySize=auto;html=1;strokeColor=default;align=center;verticalAlign=middle;fontFamily=Helvetica;fontSize=11;fontColor=default;labelBackgroundColor=default;endArrow=classic;" parent="1" source="yjUzyFciFq2yw8d2NExL-17" target="yjUzyFciFq2yw8d2NExL-3" edge="1">
          <mxGeometry relative="1" as="geometry" />
        </mxCell>
        <mxCell id="O9NsVwryFPUBB8-hVzuq-24" value="uses" style="edgeLabel;html=1;align=center;verticalAlign=middle;resizable=0;points=[];" parent="yjUzyFciFq2yw8d2NExL-21" vertex="1" connectable="0">
          <mxGeometry x="0.2382" relative="1" as="geometry">
            <mxPoint as="offset" />
          </mxGeometry>
        </mxCell>
        <mxCell id="yjUzyFciFq2yw8d2NExL-22" style="edgeStyle=none;rounded=0;orthogonalLoop=1;jettySize=auto;html=1;strokeColor=default;align=center;verticalAlign=middle;fontFamily=Helvetica;fontSize=11;fontColor=default;labelBackgroundColor=default;endArrow=classic;" parent="1" source="yjUzyFciFq2yw8d2NExL-17" target="yjUzyFciFq2yw8d2NExL-2" edge="1">
          <mxGeometry relative="1" as="geometry" />
        </mxCell>
        <mxCell id="O9NsVwryFPUBB8-hVzuq-23" value="uses" style="edgeLabel;html=1;align=center;verticalAlign=middle;resizable=0;points=[];" parent="yjUzyFciFq2yw8d2NExL-22" vertex="1" connectable="0">
          <mxGeometry x="-0.1842" y="-2" relative="1" as="geometry">
            <mxPoint as="offset" />
          </mxGeometry>
        </mxCell>
        <mxCell id="yjUzyFciFq2yw8d2NExL-23" style="edgeStyle=none;rounded=0;orthogonalLoop=1;jettySize=auto;html=1;strokeColor=default;align=center;verticalAlign=middle;fontFamily=Helvetica;fontSize=11;fontColor=default;labelBackgroundColor=default;endArrow=classic;" parent="1" source="yjUzyFciFq2yw8d2NExL-17" target="yjUzyFciFq2yw8d2NExL-5" edge="1">
          <mxGeometry relative="1" as="geometry" />
        </mxCell>
        <mxCell id="O9NsVwryFPUBB8-hVzuq-25" value="uses" style="edgeLabel;html=1;align=center;verticalAlign=middle;resizable=0;points=[];" parent="yjUzyFciFq2yw8d2NExL-23" vertex="1" connectable="0">
          <mxGeometry x="0.2379" y="2" relative="1" as="geometry">
            <mxPoint as="offset" />
          </mxGeometry>
        </mxCell>
        <mxCell id="yjUzyFciFq2yw8d2NExL-17" value="QueueManager&lt;br&gt;&lt;div&gt;QM2&lt;/div&gt;" style="rounded=0;whiteSpace=wrap;html=1;verticalAlign=top;" parent="1" vertex="1">
          <mxGeometry x="668" y="293.28999999999996" width="187.0075" height="98.425" as="geometry" />
        </mxCell>
        <mxCell id="yjUzyFciFq2yw8d2NExL-18" value="uses" style="rounded=0;orthogonalLoop=1;jettySize=auto;html=1;" parent="1" source="yjUzyFciFq2yw8d2NExL-16" target="yjUzyFciFq2yw8d2NExL-4" edge="1">
          <mxGeometry relative="1" as="geometry" />
        </mxCell>
        <mxCell id="yjUzyFciFq2yw8d2NExL-24" value="For Client (ccdt.json)" style="text;html=1;align=center;verticalAlign=middle;whiteSpace=wrap;rounded=0;fontFamily=Helvetica;fontSize=11;fontColor=default;labelBackgroundColor=default;" parent="1" vertex="1">
          <mxGeometry x="330.98" y="616.71" width="185.04" height="16.29" as="geometry" />
        </mxCell>
        <mxCell id="yjUzyFciFq2yw8d2NExL-26" value="Defines the cluster with QM1 and QM2, type uniform" style="text;html=1;align=center;verticalAlign=top;whiteSpace=wrap;rounded=0;fontFamily=Helvetica;fontSize=11;fontColor=default;labelBackgroundColor=default;" parent="1" vertex="1">
          <mxGeometry x="363.98425" y="503.28999999999996" width="185.039" height="67.3227" as="geometry" />
        </mxCell>
        <mxCell id="yjUzyFciFq2yw8d2NExL-27" value="Defines channels and (CLUSRCVR/CLUSSDR)" style="text;html=1;align=center;verticalAlign=top;whiteSpace=wrap;rounded=0;fontFamily=Helvetica;fontSize=11;fontColor=default;labelBackgroundColor=default;" parent="1" vertex="1">
          <mxGeometry x="160.00424999999996" y="503.28999999999996" width="185.039" height="67.3227" as="geometry" />
        </mxCell>
        <mxCell id="yjUzyFciFq2yw8d2NExL-28" value="Defines channels and (CLUSRCVR/CLUSSDR)" style="text;html=1;align=center;verticalAlign=top;whiteSpace=wrap;rounded=0;fontFamily=Helvetica;fontSize=11;fontColor=default;labelBackgroundColor=default;" parent="1" vertex="1">
          <mxGeometry x="770.00425" y="503.28999999999996" width="185.039" height="67.3227" as="geometry" />
        </mxCell>
        <mxCell id="yjUzyFciFq2yw8d2NExL-29" value="Defines the local queues:&amp;nbsp; TEST.DYNAMIC.QUEUE.1,&amp;nbsp;&lt;div&gt;Channel for the cluster&lt;/div&gt;&lt;div&gt;Authentication&lt;/div&gt;&lt;div&gt;&lt;br&gt;&lt;/div&gt;" style="text;html=1;align=center;verticalAlign=top;whiteSpace=wrap;rounded=0;fontFamily=Helvetica;fontSize=11;fontColor=default;labelBackgroundColor=default;" parent="1" vertex="1">
          <mxGeometry x="570.00425" y="503.28999999999996" width="185.039" height="67.3227" as="geometry" />
        </mxCell>
        <mxCell id="O9NsVwryFPUBB8-hVzuq-1" value="QueueManager&lt;br&gt;&lt;div&gt;QM3&lt;/div&gt;&lt;div&gt;&lt;span style=&quot;background-color: initial;&quot;&gt;(cluster member)&lt;/span&gt;&lt;br&gt;&lt;/div&gt;" style="rounded=0;whiteSpace=wrap;html=1;verticalAlign=top;" parent="1" vertex="1">
          <mxGeometry x="900" y="293.28999999999996" width="187.0075" height="98.425" as="geometry" />
        </mxCell>
        <mxCell id="O9NsVwryFPUBB8-hVzuq-2" value="Repository&lt;div&gt;(Master)&lt;/div&gt;" style="rounded=0;whiteSpace=wrap;html=1;" parent="1" vertex="1">
          <mxGeometry x="276.14" y="348.35" width="70.866" height="36.2204" as="geometry" />
        </mxCell>
        <mxCell id="O9NsVwryFPUBB8-hVzuq-3" value="Repository&lt;div&gt;(Slave)&lt;/div&gt;" style="rounded=0;whiteSpace=wrap;html=1;" parent="1" vertex="1">
          <mxGeometry x="683.14" y="348.35" width="70.866" height="36.2204" as="geometry" />
        </mxCell>
        <mxCell id="O9NsVwryFPUBB8-hVzuq-5" value="ConfigMap / file/....&lt;div&gt;(CCDT)&lt;br&gt;&lt;div&gt;mq-demo-mqsc&lt;/div&gt;&lt;/div&gt;" style="rounded=0;whiteSpace=wrap;html=1;verticalAlign=top;" parent="1" vertex="1">
          <mxGeometry x="740" y="130" width="130" height="60" as="geometry" />
        </mxCell>
        <mxCell id="O9NsVwryFPUBB8-hVzuq-9" value="Queue&lt;div&gt;APPQ1&lt;br&gt;&lt;/div&gt;" style="rounded=0;whiteSpace=wrap;html=1;" parent="1" vertex="1">
          <mxGeometry x="370" y="348.35" width="70.866" height="36.2204" as="geometry" />
        </mxCell>
        <mxCell id="O9NsVwryFPUBB8-hVzuq-10" value="Queue&lt;div&gt;APPQ1&lt;br&gt;&lt;/div&gt;" style="rounded=0;whiteSpace=wrap;html=1;" parent="1" vertex="1">
          <mxGeometry x="769.5699999999999" y="348.35" width="70.866" height="36.2204" as="geometry" />
        </mxCell>
        <mxCell id="O9NsVwryFPUBB8-hVzuq-11" value="Queue&lt;div&gt;APPQ1&lt;br&gt;&lt;/div&gt;" style="rounded=0;whiteSpace=wrap;html=1;" parent="1" vertex="1">
          <mxGeometry x="980" y="348.35" width="70.866" height="36.2204" as="geometry" />
        </mxCell>
        <mxCell id="O9NsVwryFPUBB8-hVzuq-12" value="put" style="rounded=0;orthogonalLoop=1;jettySize=auto;html=1;entryX=0.5;entryY=0;entryDx=0;entryDy=0;" parent="1" source="yjUzyFciFq2yw8d2NExL-15" target="O9NsVwryFPUBB8-hVzuq-9" edge="1">
          <mxGeometry relative="1" as="geometry" />
        </mxCell>
        <mxCell id="O9NsVwryFPUBB8-hVzuq-15" style="edgeStyle=orthogonalEdgeStyle;rounded=0;orthogonalLoop=1;jettySize=auto;html=1;entryX=0;entryY=0.5;entryDx=0;entryDy=0;dashed=1;" parent="1" source="O9NsVwryFPUBB8-hVzuq-14" target="O9NsVwryFPUBB8-hVzuq-2" edge="1">
          <mxGeometry relative="1" as="geometry" />
        </mxCell>
        <mxCell id="O9NsVwryFPUBB8-hVzuq-14" value="Contient les definitions des QMs&lt;div&gt;Chanels (SRD,RCV, transmit queue)&lt;/div&gt;&lt;div&gt;Permet la création d&#39;objets automatiquement au sein des clusters&amp;nbsp;&lt;/div&gt;" style="text;html=1;align=left;verticalAlign=middle;whiteSpace=wrap;rounded=0;" parent="1" vertex="1">
          <mxGeometry x="10" y="330" width="210" height="71.46" as="geometry" />
        </mxCell>
      </root>
    </mxGraphModel>
  </diagram>
  <diagram id="xdm_tiCWc_MeXE0C4f4C" name="TLS">
    <mxGraphModel dx="2074" dy="1196" grid="1" gridSize="10" guides="1" tooltips="1" connect="1" arrows="1" fold="1" page="1" pageScale="1" pageWidth="1169" pageHeight="827" math="0" shadow="0">
      <root>
        <mxCell id="0" />
        <mxCell id="1" parent="0" />
        <mxCell id="acHNUneEXAUyBgocVIXI-1" value="&lt;font style=&quot;font-size: 12px;&quot;&gt;Issuer&lt;/font&gt;&lt;div style=&quot;&quot;&gt;&lt;span style=&quot;font-family: Aptos, sans-serif;&quot; lang=&quot;EN-US&quot;&gt;&lt;font style=&quot;font-size: 12px;&quot;&gt;selfsigned-issuer&lt;/font&gt;&lt;/span&gt;&lt;br&gt;&lt;/div&gt;" style="rounded=0;whiteSpace=wrap;html=1;" parent="1" vertex="1">
          <mxGeometry x="330" y="80" width="140" height="50" as="geometry" />
        </mxCell>
        <mxCell id="acHNUneEXAUyBgocVIXI-2" value="&lt;font style=&quot;font-size: 12px;&quot;&gt;Secret&lt;/font&gt;&lt;div style=&quot;&quot;&gt;&lt;span style=&quot;font-size:11.0pt;line-height:&lt;br/&gt;107%;font-family:&amp;quot;Aptos&amp;quot;,sans-serif;mso-ascii-theme-font:minor-latin;&lt;br/&gt;mso-fareast-font-family:Aptos;mso-fareast-theme-font:minor-latin;mso-hansi-theme-font:&lt;br/&gt;minor-latin;mso-bidi-font-family:&amp;quot;Times New Roman&amp;quot;;mso-bidi-theme-font:minor-bidi;&lt;br/&gt;mso-ansi-language:EN-US;mso-fareast-language:EN-US;mso-bidi-language:AR-SA&quot; lang=&quot;EN-US&quot;&gt;test-ca-secret&lt;/span&gt;&lt;br&gt;&lt;/div&gt;" style="rounded=0;whiteSpace=wrap;html=1;dashed=1;" parent="1" vertex="1">
          <mxGeometry x="600" y="190" width="140" height="50" as="geometry" />
        </mxCell>
        <mxCell id="acHNUneEXAUyBgocVIXI-10" value="references" style="edgeStyle=none;rounded=0;orthogonalLoop=1;jettySize=auto;html=1;entryX=0.5;entryY=1;entryDx=0;entryDy=0;strokeColor=default;align=center;verticalAlign=middle;fontFamily=Helvetica;fontSize=11;fontColor=default;labelBackgroundColor=default;endArrow=classic;" parent="1" source="acHNUneEXAUyBgocVIXI-3" target="acHNUneEXAUyBgocVIXI-1" edge="1">
          <mxGeometry relative="1" as="geometry" />
        </mxCell>
        <mxCell id="acHNUneEXAUyBgocVIXI-11" value="generates" style="edgeStyle=none;rounded=0;orthogonalLoop=1;jettySize=auto;html=1;entryX=0;entryY=0.5;entryDx=0;entryDy=0;strokeColor=default;align=center;verticalAlign=middle;fontFamily=Helvetica;fontSize=11;fontColor=default;labelBackgroundColor=default;endArrow=classic;dashed=1;" parent="1" source="acHNUneEXAUyBgocVIXI-3" target="acHNUneEXAUyBgocVIXI-2" edge="1">
          <mxGeometry relative="1" as="geometry" />
        </mxCell>
        <mxCell id="acHNUneEXAUyBgocVIXI-3" value="&lt;font style=&quot;font-size: 12px;&quot;&gt;Certificate&lt;/font&gt;&lt;div style=&quot;&quot;&gt;&lt;span style=&quot;font-family: Aptos, sans-serif;&quot; lang=&quot;EN-US&quot;&gt;&lt;font style=&quot;font-size: 12px;&quot;&gt;selfsigned-issuer&lt;/font&gt;&lt;/span&gt;&lt;br&gt;&lt;/div&gt;" style="rounded=0;whiteSpace=wrap;html=1;" parent="1" vertex="1">
          <mxGeometry x="330" y="190" width="140" height="50" as="geometry" />
        </mxCell>
        <mxCell id="acHNUneEXAUyBgocVIXI-9" value="references" style="rounded=0;orthogonalLoop=1;jettySize=auto;html=1;" parent="1" source="acHNUneEXAUyBgocVIXI-5" target="acHNUneEXAUyBgocVIXI-2" edge="1">
          <mxGeometry relative="1" as="geometry" />
        </mxCell>
        <mxCell id="acHNUneEXAUyBgocVIXI-5" value="&lt;font style=&quot;font-size: 12px;&quot;&gt;Issuer&lt;/font&gt;&lt;div style=&quot;&quot;&gt;&lt;span style=&quot;font-family: Aptos, sans-serif;&quot; lang=&quot;EN-US&quot;&gt;&lt;font style=&quot;font-size: 12px;&quot;&gt;ca-issuer&lt;/font&gt;&lt;/span&gt;&lt;br&gt;&lt;/div&gt;" style="rounded=0;whiteSpace=wrap;html=1;" parent="1" vertex="1">
          <mxGeometry x="330" y="299" width="140" height="52" as="geometry" />
        </mxCell>
        <mxCell id="acHNUneEXAUyBgocVIXI-12" value="references" style="edgeStyle=none;rounded=0;orthogonalLoop=1;jettySize=auto;html=1;strokeColor=default;align=center;verticalAlign=middle;fontFamily=Helvetica;fontSize=11;fontColor=default;labelBackgroundColor=default;endArrow=classic;" parent="1" source="acHNUneEXAUyBgocVIXI-8" target="acHNUneEXAUyBgocVIXI-5" edge="1">
          <mxGeometry relative="1" as="geometry" />
        </mxCell>
        <mxCell id="acHNUneEXAUyBgocVIXI-20" value="generates" style="edgeStyle=none;rounded=0;orthogonalLoop=1;jettySize=auto;html=1;entryX=0.5;entryY=0;entryDx=0;entryDy=0;strokeColor=default;align=center;verticalAlign=middle;fontFamily=Helvetica;fontSize=11;fontColor=default;labelBackgroundColor=default;endArrow=classic;dashed=1;" parent="1" source="acHNUneEXAUyBgocVIXI-8" target="acHNUneEXAUyBgocVIXI-13" edge="1">
          <mxGeometry relative="1" as="geometry" />
        </mxCell>
        <mxCell id="acHNUneEXAUyBgocVIXI-8" value="&lt;font style=&quot;font-size: 12px;&quot;&gt;Certificate&lt;/font&gt;&lt;div style=&quot;&quot;&gt;&lt;span style=&quot;font-size:11.0pt;line-height:&lt;br/&gt;107%;font-family:&amp;quot;Aptos&amp;quot;,sans-serif;mso-ascii-theme-font:minor-latin;&lt;br/&gt;mso-fareast-font-family:Aptos;mso-fareast-theme-font:minor-latin;mso-hansi-theme-font:&lt;br/&gt;minor-latin;mso-bidi-font-family:&amp;quot;Times New Roman&amp;quot;;mso-bidi-theme-font:minor-bidi;&lt;br/&gt;mso-ansi-language:EN-US;mso-fareast-language:EN-US;mso-bidi-language:AR-SA&quot; lang=&quot;EN-US&quot;&gt;test-server&lt;/span&gt;&lt;br&gt;&lt;/div&gt;" style="rounded=0;whiteSpace=wrap;html=1;" parent="1" vertex="1">
          <mxGeometry x="220" y="410" width="140" height="50" as="geometry" />
        </mxCell>
        <mxCell id="acHNUneEXAUyBgocVIXI-13" value="&lt;font style=&quot;font-size: 12px;&quot;&gt;Secret&lt;/font&gt;&lt;div style=&quot;&quot;&gt;&lt;span style=&quot;font-family: Aptos, sans-serif; font-size: 14.6667px;&quot;&gt;test-server-tls&lt;/span&gt;&lt;br&gt;&lt;/div&gt;" style="rounded=0;whiteSpace=wrap;html=1;dashed=1;" parent="1" vertex="1">
          <mxGeometry x="220" y="520" width="140" height="50" as="geometry" />
        </mxCell>
        <mxCell id="acHNUneEXAUyBgocVIXI-15" value="&lt;font style=&quot;font-size: 12px;&quot;&gt;Secret&lt;/font&gt;&lt;div style=&quot;&quot;&gt;&lt;span style=&quot;font-family: Aptos, sans-serif; font-size: 14.6667px;&quot;&gt;test-client-tls&lt;/span&gt;&lt;br&gt;&lt;/div&gt;" style="rounded=0;whiteSpace=wrap;html=1;dashed=1;" parent="1" vertex="1">
          <mxGeometry x="440" y="520" width="140" height="50" as="geometry" />
        </mxCell>
        <mxCell id="acHNUneEXAUyBgocVIXI-19" value="references" style="edgeStyle=none;rounded=0;orthogonalLoop=1;jettySize=auto;html=1;strokeColor=default;align=center;verticalAlign=middle;fontFamily=Helvetica;fontSize=11;fontColor=default;labelBackgroundColor=default;endArrow=classic;" parent="1" source="acHNUneEXAUyBgocVIXI-17" target="acHNUneEXAUyBgocVIXI-5" edge="1">
          <mxGeometry relative="1" as="geometry" />
        </mxCell>
        <mxCell id="acHNUneEXAUyBgocVIXI-21" value="generates" style="edgeStyle=none;rounded=0;orthogonalLoop=1;jettySize=auto;html=1;entryX=0.5;entryY=0;entryDx=0;entryDy=0;strokeColor=default;align=center;verticalAlign=middle;fontFamily=Helvetica;fontSize=11;fontColor=default;labelBackgroundColor=default;endArrow=classic;dashed=1;" parent="1" source="acHNUneEXAUyBgocVIXI-17" target="acHNUneEXAUyBgocVIXI-15" edge="1">
          <mxGeometry relative="1" as="geometry" />
        </mxCell>
        <mxCell id="acHNUneEXAUyBgocVIXI-17" value="&lt;font style=&quot;font-size: 12px;&quot;&gt;Certificate&lt;/font&gt;&lt;div style=&quot;&quot;&gt;&lt;span style=&quot;font-size:11.0pt;line-height:&lt;br/&gt;107%;font-family:&amp;quot;Aptos&amp;quot;,sans-serif;mso-ascii-theme-font:minor-latin;&lt;br/&gt;mso-fareast-font-family:Aptos;mso-fareast-theme-font:minor-latin;mso-hansi-theme-font:&lt;br/&gt;minor-latin;mso-bidi-font-family:&amp;quot;Times New Roman&amp;quot;;mso-bidi-theme-font:minor-bidi;&lt;br/&gt;mso-ansi-language:EN-US;mso-fareast-language:EN-US;mso-bidi-language:AR-SA&quot; lang=&quot;EN-US&quot;&gt;test-client&lt;/span&gt;&lt;br&gt;&lt;/div&gt;" style="rounded=0;whiteSpace=wrap;html=1;" parent="1" vertex="1">
          <mxGeometry x="440" y="406.5" width="140" height="57" as="geometry" />
        </mxCell>
        <mxCell id="acHNUneEXAUyBgocVIXI-22" value="1" style="ellipse;whiteSpace=wrap;html=1;fontFamily=Helvetica;fontSize=18;labelBackgroundColor=none;fontStyle=1;fillColor=#FF0000;strokeColor=#000000;fontColor=#FFFFFF;" parent="1" vertex="1">
          <mxGeometry x="280" y="90" width="30" height="30" as="geometry" />
        </mxCell>
        <mxCell id="acHNUneEXAUyBgocVIXI-23" value="2" style="ellipse;whiteSpace=wrap;html=1;fontFamily=Helvetica;fontSize=18;labelBackgroundColor=none;fontStyle=1;fillColor=#FF0000;strokeColor=#000000;fontColor=#FFFFFF;" parent="1" vertex="1">
          <mxGeometry x="280" y="200" width="30" height="30" as="geometry" />
        </mxCell>
        <mxCell id="acHNUneEXAUyBgocVIXI-24" value="3" style="ellipse;whiteSpace=wrap;html=1;fontFamily=Helvetica;fontSize=18;labelBackgroundColor=none;fontStyle=1;fillColor=#FF0000;strokeColor=#000000;fontColor=#FFFFFF;" parent="1" vertex="1">
          <mxGeometry x="760" y="200" width="30" height="30" as="geometry" />
        </mxCell>
        <mxCell id="acHNUneEXAUyBgocVIXI-25" value="4" style="ellipse;whiteSpace=wrap;html=1;fontFamily=Helvetica;fontSize=18;labelBackgroundColor=none;fontStyle=1;fillColor=#3333FF;strokeColor=#000000;fontColor=#FFFFFF;" parent="1" vertex="1">
          <mxGeometry x="280" y="310" width="30" height="30" as="geometry" />
        </mxCell>
        <mxCell id="acHNUneEXAUyBgocVIXI-26" value="5" style="ellipse;whiteSpace=wrap;html=1;fontFamily=Helvetica;fontSize=18;labelBackgroundColor=none;fontStyle=1;fillColor=#3333FF;strokeColor=#000000;fontColor=#FFFFFF;" parent="1" vertex="1">
          <mxGeometry x="170" y="420" width="30" height="30" as="geometry" />
        </mxCell>
        <mxCell id="acHNUneEXAUyBgocVIXI-27" value="6" style="ellipse;whiteSpace=wrap;html=1;fontFamily=Helvetica;fontSize=18;labelBackgroundColor=none;fontStyle=1;fillColor=#3333FF;strokeColor=#000000;fontColor=#FFFFFF;" parent="1" vertex="1">
          <mxGeometry x="170" y="530" width="30" height="30" as="geometry" />
        </mxCell>
      </root>
    </mxGraphModel>
  </diagram>
  <diagram id="OU_mMLl0SbnR3tihYOAJ" name="Keycloak">
    <mxGraphModel dx="2074" dy="1196" grid="1" gridSize="10" guides="1" tooltips="1" connect="1" arrows="1" fold="1" page="1" pageScale="1" pageWidth="1169" pageHeight="827" math="0" shadow="0">
      <root>
        <mxCell id="0" />
        <mxCell id="1" parent="0" />
        <mxCell id="ySHuOfyN9tS2yjVSySgA-16" value="Keycloak realm" style="ellipse;whiteSpace=wrap;html=1;verticalAlign=top;fillColor=#e51400;fontColor=#ffffff;strokeColor=#B20000;" parent="1" vertex="1">
          <mxGeometry x="510" y="110" width="540" height="320" as="geometry" />
        </mxCell>
        <mxCell id="ySHuOfyN9tS2yjVSySgA-1" value="User" style="rounded=0;whiteSpace=wrap;html=1;" parent="1" vertex="1">
          <mxGeometry x="577" y="213.5" width="96.45649999999999" height="30" as="geometry" />
        </mxCell>
        <mxCell id="ySHuOfyN9tS2yjVSySgA-2" value="email&lt;div&gt;username&lt;/div&gt;&lt;div&gt;address&lt;/div&gt;&lt;div&gt;phone number&lt;/div&gt;&lt;div&gt;birthday&lt;/div&gt;&lt;div&gt;credential&lt;/div&gt;&lt;div&gt;...&lt;/div&gt;" style="rounded=0;whiteSpace=wrap;html=1;verticalAlign=top;" parent="1" vertex="1">
          <mxGeometry x="577" y="243.5" width="96.45649999999999" height="110" as="geometry" />
        </mxCell>
        <mxCell id="ySHuOfyN9tS2yjVSySgA-4" value="Role" style="rounded=0;whiteSpace=wrap;html=1;" parent="1" vertex="1">
          <mxGeometry x="900" y="267" width="96.45649999999999" height="30" as="geometry" />
        </mxCell>
        <mxCell id="ySHuOfyN9tS2yjVSySgA-5" value="permissions" style="rounded=0;whiteSpace=wrap;html=1;verticalAlign=top;" parent="1" vertex="1">
          <mxGeometry x="900" y="297" width="96.46" height="36.5" as="geometry" />
        </mxCell>
        <mxCell id="ySHuOfyN9tS2yjVSySgA-7" style="edgeStyle=orthogonalEdgeStyle;rounded=0;orthogonalLoop=1;jettySize=auto;html=1;entryX=1;entryY=0.5;entryDx=0;entryDy=0;" parent="1" source="ySHuOfyN9tS2yjVSySgA-6" target="ySHuOfyN9tS2yjVSySgA-1" edge="1">
          <mxGeometry relative="1" as="geometry" />
        </mxCell>
        <mxCell id="ySHuOfyN9tS2yjVSySgA-8" style="rounded=0;orthogonalLoop=1;jettySize=auto;html=1;entryX=0;entryY=0.5;entryDx=0;entryDy=0;" parent="1" source="ySHuOfyN9tS2yjVSySgA-6" target="ySHuOfyN9tS2yjVSySgA-4" edge="1">
          <mxGeometry relative="1" as="geometry" />
        </mxCell>
        <mxCell id="ySHuOfyN9tS2yjVSySgA-6" value="RoleMapping" style="rounded=0;whiteSpace=wrap;html=1;" parent="1" vertex="1">
          <mxGeometry x="737" y="213.5" width="96.45649999999999" height="30" as="geometry" />
        </mxCell>
        <mxCell id="ySHuOfyN9tS2yjVSySgA-11" style="edgeStyle=orthogonalEdgeStyle;rounded=0;orthogonalLoop=1;jettySize=auto;html=1;entryX=0.5;entryY=0;entryDx=0;entryDy=0;" parent="1" source="ySHuOfyN9tS2yjVSySgA-9" target="ySHuOfyN9tS2yjVSySgA-6" edge="1">
          <mxGeometry relative="1" as="geometry" />
        </mxCell>
        <mxCell id="ySHuOfyN9tS2yjVSySgA-9" value="CompositeRole" style="rounded=0;whiteSpace=wrap;html=1;" parent="1" vertex="1">
          <mxGeometry x="737" y="153.5" width="96.45649999999999" height="30" as="geometry" />
        </mxCell>
        <mxCell id="ySHuOfyN9tS2yjVSySgA-14" style="rounded=0;orthogonalLoop=1;jettySize=auto;html=1;entryX=1;entryY=0.75;entryDx=0;entryDy=0;" parent="1" source="ySHuOfyN9tS2yjVSySgA-12" target="ySHuOfyN9tS2yjVSySgA-1" edge="1">
          <mxGeometry relative="1" as="geometry" />
        </mxCell>
        <mxCell id="ySHuOfyN9tS2yjVSySgA-15" style="rounded=0;orthogonalLoop=1;jettySize=auto;html=1;entryX=0;entryY=0.75;entryDx=0;entryDy=0;" parent="1" source="ySHuOfyN9tS2yjVSySgA-12" target="ySHuOfyN9tS2yjVSySgA-4" edge="1">
          <mxGeometry relative="1" as="geometry" />
        </mxCell>
        <mxCell id="ySHuOfyN9tS2yjVSySgA-12" value="Group" style="rounded=0;whiteSpace=wrap;html=1;" parent="1" vertex="1">
          <mxGeometry x="737" y="280" width="96.45649999999999" height="30" as="geometry" />
        </mxCell>
        <mxCell id="ySHuOfyN9tS2yjVSySgA-13" value="prop1" style="rounded=0;whiteSpace=wrap;html=1;verticalAlign=top;" parent="1" vertex="1">
          <mxGeometry x="737" y="310" width="96.46" height="26.5" as="geometry" />
        </mxCell>
        <mxCell id="ySHuOfyN9tS2yjVSySgA-17" value="Role" style="rounded=0;whiteSpace=wrap;html=1;strokeColor=#6c8ebf;align=center;verticalAlign=middle;fontFamily=Helvetica;fontSize=12;fillColor=#dae8fc;" parent="1" vertex="1">
          <mxGeometry x="380" y="270" width="96.45649999999999" height="30" as="geometry" />
        </mxCell>
        <mxCell id="ySHuOfyN9tS2yjVSySgA-18" value="client scope" style="rounded=0;whiteSpace=wrap;html=1;fillColor=#dae8fc;strokeColor=#6c8ebf;" parent="1" vertex="1">
          <mxGeometry x="380" y="240" width="96.45649999999999" height="30" as="geometry" />
        </mxCell>
        <mxCell id="JA1Co_s4TELXlvf0EOKm-4" style="edgeStyle=orthogonalEdgeStyle;rounded=0;orthogonalLoop=1;jettySize=auto;html=1;" parent="1" source="ySHuOfyN9tS2yjVSySgA-19" target="JA1Co_s4TELXlvf0EOKm-3" edge="1">
          <mxGeometry relative="1" as="geometry" />
        </mxCell>
        <mxCell id="JA1Co_s4TELXlvf0EOKm-5" style="rounded=0;orthogonalLoop=1;jettySize=auto;html=1;" parent="1" source="ySHuOfyN9tS2yjVSySgA-19" target="ySHuOfyN9tS2yjVSySgA-2" edge="1">
          <mxGeometry relative="1" as="geometry" />
        </mxCell>
        <mxCell id="ySHuOfyN9tS2yjVSySgA-19" value="User Federation" style="rounded=0;whiteSpace=wrap;html=1;" parent="1" vertex="1">
          <mxGeometry x="737" y="360" width="96.45649999999999" height="30" as="geometry" />
        </mxCell>
        <mxCell id="ySHuOfyN9tS2yjVSySgA-20" value="Client/Application" style="rounded=0;whiteSpace=wrap;html=1;fillColor=#dae8fc;strokeColor=#6c8ebf;" parent="1" vertex="1">
          <mxGeometry x="380" y="210" width="96.45649999999999" height="30" as="geometry" />
        </mxCell>
        <mxCell id="JA1Co_s4TELXlvf0EOKm-2" value="isAssociatedWith" style="edgeStyle=orthogonalEdgeStyle;rounded=0;orthogonalLoop=1;jettySize=auto;html=1;entryX=0.5;entryY=0;entryDx=0;entryDy=0;" parent="1" source="JA1Co_s4TELXlvf0EOKm-1" target="ySHuOfyN9tS2yjVSySgA-4" edge="1">
          <mxGeometry relative="1" as="geometry" />
        </mxCell>
        <mxCell id="JA1Co_s4TELXlvf0EOKm-1" value="Client" style="rounded=0;whiteSpace=wrap;html=1;" parent="1" vertex="1">
          <mxGeometry x="900" y="192" width="96.45649999999999" height="30" as="geometry" />
        </mxCell>
        <mxCell id="JA1Co_s4TELXlvf0EOKm-3" value="Identity Provider" style="rounded=0;whiteSpace=wrap;html=1;fillColor=#0050ef;fontColor=#ffffff;strokeColor=#001DBC;" parent="1" vertex="1">
          <mxGeometry x="737" y="450" width="96.45649999999999" height="30" as="geometry" />
        </mxCell>
        <mxCell id="JA1Co_s4TELXlvf0EOKm-6" value="Client adapter" style="rounded=0;whiteSpace=wrap;html=1;dashed=1;fillColor=#dae8fc;strokeColor=#6c8ebf;" parent="1" vertex="1">
          <mxGeometry x="380" y="300" width="96.45649999999999" height="30" as="geometry" />
        </mxCell>
      </root>
    </mxGraphModel>
  </diagram>
  <diagram id="ASAnZ7FDU2YfbakpVFkD" name="OpenShift">
    <mxGraphModel dx="2074" dy="1196" grid="1" gridSize="10" guides="1" tooltips="1" connect="1" arrows="1" fold="1" page="1" pageScale="1" pageWidth="827" pageHeight="1169" math="0" shadow="0">
      <root>
        <mxCell id="0" />
        <mxCell id="1" parent="0" />
        <mxCell id="oZSlx2BBRSYbhyja9S7Y-1" value="SNO" style="rounded=0;whiteSpace=wrap;html=1;" parent="1" vertex="1">
          <mxGeometry x="40" y="60" width="120" height="36.2204" as="geometry" />
        </mxCell>
        <mxCell id="oZSlx2BBRSYbhyja9S7Y-2" value="Worker, master" style="rounded=0;whiteSpace=wrap;html=1;" parent="1" vertex="1">
          <mxGeometry x="240" y="60" width="120" height="36.2204" as="geometry" />
        </mxCell>
        <mxCell id="oZSlx2BBRSYbhyja9S7Y-3" value="Worker, master" style="rounded=0;whiteSpace=wrap;html=1;" parent="1" vertex="1">
          <mxGeometry x="380" y="60" width="120" height="36.2204" as="geometry" />
        </mxCell>
        <mxCell id="oZSlx2BBRSYbhyja9S7Y-4" value="Worker, master" style="rounded=0;whiteSpace=wrap;html=1;" parent="1" vertex="1">
          <mxGeometry x="520" y="60" width="120" height="36.2204" as="geometry" />
        </mxCell>
        <mxCell id="oZSlx2BBRSYbhyja9S7Y-5" value="Single Node OpenShift" style="text;html=1;align=center;verticalAlign=middle;whiteSpace=wrap;rounded=0;" parent="1" vertex="1">
          <mxGeometry x="40" y="10" width="120" height="30" as="geometry" />
        </mxCell>
        <mxCell id="oZSlx2BBRSYbhyja9S7Y-6" value="3 masters and workers together" style="text;html=1;align=center;verticalAlign=middle;whiteSpace=wrap;rounded=0;" parent="1" vertex="1">
          <mxGeometry x="240" y="10" width="400" height="30" as="geometry" />
        </mxCell>
        <mxCell id="oZSlx2BBRSYbhyja9S7Y-7" value="master" style="rounded=0;whiteSpace=wrap;html=1;" parent="1" vertex="1">
          <mxGeometry x="160" y="170" width="120" height="36.2204" as="geometry" />
        </mxCell>
        <mxCell id="oZSlx2BBRSYbhyja9S7Y-8" value="master" style="rounded=0;whiteSpace=wrap;html=1;" parent="1" vertex="1">
          <mxGeometry x="300" y="170" width="120" height="36.2204" as="geometry" />
        </mxCell>
        <mxCell id="oZSlx2BBRSYbhyja9S7Y-9" value="master" style="rounded=0;whiteSpace=wrap;html=1;" parent="1" vertex="1">
          <mxGeometry x="440" y="170" width="120" height="36.2204" as="geometry" />
        </mxCell>
        <mxCell id="oZSlx2BBRSYbhyja9S7Y-10" value="3 masters and workers separated" style="text;html=1;align=center;verticalAlign=middle;whiteSpace=wrap;rounded=0;" parent="1" vertex="1">
          <mxGeometry x="160" y="120" width="400" height="30" as="geometry" />
        </mxCell>
        <mxCell id="oZSlx2BBRSYbhyja9S7Y-11" value="worker" style="rounded=0;whiteSpace=wrap;html=1;" parent="1" vertex="1">
          <mxGeometry x="160" y="230" width="120" height="36.2204" as="geometry" />
        </mxCell>
        <mxCell id="oZSlx2BBRSYbhyja9S7Y-12" value="worker" style="rounded=0;whiteSpace=wrap;html=1;" parent="1" vertex="1">
          <mxGeometry x="300" y="230" width="120" height="36.2204" as="geometry" />
        </mxCell>
        <mxCell id="oZSlx2BBRSYbhyja9S7Y-13" value="worker" style="rounded=0;whiteSpace=wrap;html=1;" parent="1" vertex="1">
          <mxGeometry x="440" y="230" width="120" height="36.2204" as="geometry" />
        </mxCell>
        <mxCell id="oZSlx2BBRSYbhyja9S7Y-14" value="master" style="rounded=0;whiteSpace=wrap;html=1;" parent="1" vertex="1">
          <mxGeometry x="160" y="340" width="120" height="36.2204" as="geometry" />
        </mxCell>
        <mxCell id="oZSlx2BBRSYbhyja9S7Y-15" value="master" style="rounded=0;whiteSpace=wrap;html=1;" parent="1" vertex="1">
          <mxGeometry x="300" y="340" width="120" height="36.2204" as="geometry" />
        </mxCell>
        <mxCell id="oZSlx2BBRSYbhyja9S7Y-16" value="master" style="rounded=0;whiteSpace=wrap;html=1;" parent="1" vertex="1">
          <mxGeometry x="440" y="340" width="120" height="36.2204" as="geometry" />
        </mxCell>
        <mxCell id="oZSlx2BBRSYbhyja9S7Y-17" value="specialisation" style="text;html=1;align=center;verticalAlign=middle;whiteSpace=wrap;rounded=0;" parent="1" vertex="1">
          <mxGeometry x="210" y="290" width="290" height="30" as="geometry" />
        </mxCell>
        <mxCell id="oZSlx2BBRSYbhyja9S7Y-18" value="worker" style="rounded=0;whiteSpace=wrap;html=1;" parent="1" vertex="1">
          <mxGeometry x="160" y="400" width="120" height="36.2204" as="geometry" />
        </mxCell>
        <mxCell id="oZSlx2BBRSYbhyja9S7Y-19" value="worker" style="rounded=0;whiteSpace=wrap;html=1;" parent="1" vertex="1">
          <mxGeometry x="300" y="400" width="120" height="36.2204" as="geometry" />
        </mxCell>
        <mxCell id="oZSlx2BBRSYbhyja9S7Y-20" value="worker" style="rounded=0;whiteSpace=wrap;html=1;" parent="1" vertex="1">
          <mxGeometry x="440" y="400" width="120" height="36.2204" as="geometry" />
        </mxCell>
        <mxCell id="oZSlx2BBRSYbhyja9S7Y-21" value="storage" style="rounded=0;whiteSpace=wrap;html=1;" parent="1" vertex="1">
          <mxGeometry x="160" y="460" width="120" height="36.2204" as="geometry" />
        </mxCell>
        <mxCell id="oZSlx2BBRSYbhyja9S7Y-22" value="storage" style="rounded=0;whiteSpace=wrap;html=1;" parent="1" vertex="1">
          <mxGeometry x="300" y="460" width="120" height="36.2204" as="geometry" />
        </mxCell>
        <mxCell id="oZSlx2BBRSYbhyja9S7Y-23" value="storage" style="rounded=0;whiteSpace=wrap;html=1;" parent="1" vertex="1">
          <mxGeometry x="440" y="460" width="120" height="36.2204" as="geometry" />
        </mxCell>
        <mxCell id="oZSlx2BBRSYbhyja9S7Y-25" value="infra (monitoring, keycloak, certmanager, ...)" style="rounded=0;whiteSpace=wrap;html=1;" parent="1" vertex="1">
          <mxGeometry x="160" y="510" width="120" height="51.968399999999995" as="geometry" />
        </mxCell>
        <mxCell id="oZSlx2BBRSYbhyja9S7Y-26" value="infra" style="rounded=0;whiteSpace=wrap;html=1;" parent="1" vertex="1">
          <mxGeometry x="300" y="510" width="120" height="51.968399999999995" as="geometry" />
        </mxCell>
        <mxCell id="oZSlx2BBRSYbhyja9S7Y-27" value="infra" style="rounded=0;whiteSpace=wrap;html=1;" parent="1" vertex="1">
          <mxGeometry x="440" y="510" width="120" height="51.968399999999995" as="geometry" />
        </mxCell>
        <mxCell id="oZSlx2BBRSYbhyja9S7Y-28" value="worker" style="rounded=0;whiteSpace=wrap;html=1;" parent="1" vertex="1">
          <mxGeometry x="570" y="400" width="120" height="36.2204" as="geometry" />
        </mxCell>
        <mxCell id="oZSlx2BBRSYbhyja9S7Y-29" value="worker" style="rounded=0;whiteSpace=wrap;html=1;dashed=1;" parent="1" vertex="1">
          <mxGeometry x="700" y="400" width="120" height="36.2204" as="geometry" />
        </mxCell>
      </root>
    </mxGraphModel>
  </diagram>
  <diagram id="0AyQdWfguZbnSDKuPsRJ" name="MQ JWT">
    <mxGraphModel dx="1430" dy="825" grid="1" gridSize="10" guides="1" tooltips="1" connect="1" arrows="1" fold="1" page="1" pageScale="1" pageWidth="1169" pageHeight="827" math="0" shadow="0">
      <root>
        <mxCell id="0" />
        <mxCell id="1" parent="0" />
        <mxCell id="4UZhzCgLdHTaJtpBOjvQ-4" value="ConfigMap&lt;div&gt;mq-uniform-cluster-qm1-mqsc-cm&lt;/div&gt;" style="rounded=0;whiteSpace=wrap;html=1;verticalAlign=top;" vertex="1" parent="1">
          <mxGeometry x="160" y="443.28999999999996" width="187.0075" height="45.2755" as="geometry" />
        </mxCell>
        <mxCell id="4UZhzCgLdHTaJtpBOjvQ-6" value="ConfigMap&lt;div&gt;index-html-configmap&lt;/div&gt;" style="rounded=0;whiteSpace=wrap;html=1;verticalAlign=top;" vertex="1" parent="1">
          <mxGeometry x="330" y="636" width="187.0075" height="45.2755" as="geometry" />
        </mxCell>
        <mxCell id="4UZhzCgLdHTaJtpBOjvQ-7" value="&lt;div&gt;Namespace&lt;/div&gt;&lt;div&gt;cp4i&lt;/div&gt;" style="rounded=0;whiteSpace=wrap;html=1;verticalAlign=top;" vertex="1" parent="1">
          <mxGeometry x="412" y="50" width="120" height="40" as="geometry" />
        </mxCell>
        <mxCell id="4UZhzCgLdHTaJtpBOjvQ-8" value="&lt;div&gt;Route&lt;/div&gt;&lt;div&gt;qmgr-demo-tls-route&lt;/div&gt;" style="rounded=0;whiteSpace=wrap;html=1;verticalAlign=top;" vertex="1" parent="1">
          <mxGeometry x="160" y="706" width="120" height="45.2755" as="geometry" />
        </mxCell>
        <mxCell id="4UZhzCgLdHTaJtpBOjvQ-9" value="&lt;div&gt;&lt;span style=&quot;background-color: initial;&quot;&gt;Service&lt;/span&gt;&lt;br&gt;&lt;/div&gt;&lt;div&gt;&lt;span style=&quot;background-color: initial;&quot;&gt;qmgr-demo-ibm-mq&lt;br&gt;&lt;/span&gt;&lt;/div&gt;" style="rounded=0;whiteSpace=wrap;html=1;verticalAlign=top;" vertex="1" parent="1">
          <mxGeometry x="160" y="653" width="120" height="45.2755" as="geometry" />
        </mxCell>
        <mxCell id="4UZhzCgLdHTaJtpBOjvQ-10" value="&lt;div&gt;Deployment&lt;br&gt;&lt;/div&gt;&lt;div&gt;&lt;span style=&quot;background-color: initial;&quot;&gt;nginx-deployment&lt;br&gt;&lt;/span&gt;&lt;/div&gt;" style="rounded=0;whiteSpace=wrap;html=1;verticalAlign=top;" vertex="1" parent="1">
          <mxGeometry x="160" y="600" width="120" height="45.2755" as="geometry" />
        </mxCell>
        <mxCell id="4UZhzCgLdHTaJtpBOjvQ-11" value="uses" style="edgeStyle=orthogonalEdgeStyle;rounded=0;orthogonalLoop=1;jettySize=auto;html=1;" edge="1" parent="1" source="4UZhzCgLdHTaJtpBOjvQ-12" target="4UZhzCgLdHTaJtpBOjvQ-33">
          <mxGeometry relative="1" as="geometry" />
        </mxCell>
        <mxCell id="4UZhzCgLdHTaJtpBOjvQ-12" value="MQ Client&lt;div&gt;App1&lt;/div&gt;" style="rounded=0;whiteSpace=wrap;html=1;verticalAlign=top;" vertex="1" parent="1">
          <mxGeometry x="350" y="117.35999999999999" width="108.2675" height="45.2755" as="geometry" />
        </mxCell>
        <mxCell id="4UZhzCgLdHTaJtpBOjvQ-41" style="rounded=0;orthogonalLoop=1;jettySize=auto;html=1;" edge="1" parent="1" source="4UZhzCgLdHTaJtpBOjvQ-16" target="4UZhzCgLdHTaJtpBOjvQ-40">
          <mxGeometry relative="1" as="geometry" />
        </mxCell>
        <mxCell id="4UZhzCgLdHTaJtpBOjvQ-16" value="QueueManager&lt;br&gt;&lt;div&gt;QM1&lt;/div&gt;" style="rounded=0;whiteSpace=wrap;html=1;verticalAlign=top;" vertex="1" parent="1">
          <mxGeometry x="261" y="293.28999999999996" width="187.0075" height="98.425" as="geometry" />
        </mxCell>
        <mxCell id="4UZhzCgLdHTaJtpBOjvQ-24" value="uses" style="rounded=0;orthogonalLoop=1;jettySize=auto;html=1;" edge="1" parent="1" source="4UZhzCgLdHTaJtpBOjvQ-16" target="4UZhzCgLdHTaJtpBOjvQ-4">
          <mxGeometry relative="1" as="geometry" />
        </mxCell>
        <mxCell id="4UZhzCgLdHTaJtpBOjvQ-25" value="For Client (ccdt.json)" style="text;html=1;align=center;verticalAlign=middle;whiteSpace=wrap;rounded=0;fontFamily=Helvetica;fontSize=11;fontColor=default;labelBackgroundColor=default;" vertex="1" parent="1">
          <mxGeometry x="330.98" y="616.71" width="185.04" height="16.29" as="geometry" />
        </mxCell>
        <mxCell id="4UZhzCgLdHTaJtpBOjvQ-26" value="Defines the cluster with QM1 and QM2, type uniform" style="text;html=1;align=center;verticalAlign=top;whiteSpace=wrap;rounded=0;fontFamily=Helvetica;fontSize=11;fontColor=default;labelBackgroundColor=default;" vertex="1" parent="1">
          <mxGeometry x="363.98425" y="503.28999999999996" width="185.039" height="67.3227" as="geometry" />
        </mxCell>
        <mxCell id="4UZhzCgLdHTaJtpBOjvQ-27" value="Defines channels and (CLUSRCVR/CLUSSDR)" style="text;html=1;align=center;verticalAlign=top;whiteSpace=wrap;rounded=0;fontFamily=Helvetica;fontSize=11;fontColor=default;labelBackgroundColor=default;" vertex="1" parent="1">
          <mxGeometry x="160.00424999999996" y="503.28999999999996" width="185.039" height="67.3227" as="geometry" />
        </mxCell>
        <mxCell id="4UZhzCgLdHTaJtpBOjvQ-31" value="Repository&lt;div&gt;(Master)&lt;/div&gt;" style="rounded=0;whiteSpace=wrap;html=1;" vertex="1" parent="1">
          <mxGeometry x="276.14" y="348.35" width="70.866" height="36.2204" as="geometry" />
        </mxCell>
        <mxCell id="4UZhzCgLdHTaJtpBOjvQ-33" value="ConfigMap / file/....&lt;div&gt;(CCDT)&lt;br&gt;&lt;div&gt;mq-demo-mqsc&lt;/div&gt;&lt;/div&gt;" style="rounded=0;whiteSpace=wrap;html=1;verticalAlign=top;" vertex="1" parent="1">
          <mxGeometry x="540" y="110" width="130" height="60" as="geometry" />
        </mxCell>
        <mxCell id="4UZhzCgLdHTaJtpBOjvQ-34" value="Queue&lt;div&gt;APPQ1&lt;br&gt;&lt;/div&gt;" style="rounded=0;whiteSpace=wrap;html=1;" vertex="1" parent="1">
          <mxGeometry x="370" y="348.35" width="70.866" height="36.2204" as="geometry" />
        </mxCell>
        <mxCell id="4UZhzCgLdHTaJtpBOjvQ-37" value="put" style="rounded=0;orthogonalLoop=1;jettySize=auto;html=1;entryX=0.5;entryY=0;entryDx=0;entryDy=0;" edge="1" parent="1" source="4UZhzCgLdHTaJtpBOjvQ-12" target="4UZhzCgLdHTaJtpBOjvQ-34">
          <mxGeometry relative="1" as="geometry" />
        </mxCell>
        <mxCell id="4UZhzCgLdHTaJtpBOjvQ-38" style="edgeStyle=orthogonalEdgeStyle;rounded=0;orthogonalLoop=1;jettySize=auto;html=1;entryX=0;entryY=0.5;entryDx=0;entryDy=0;dashed=1;" edge="1" parent="1" source="4UZhzCgLdHTaJtpBOjvQ-39" target="4UZhzCgLdHTaJtpBOjvQ-31">
          <mxGeometry relative="1" as="geometry" />
        </mxCell>
        <mxCell id="4UZhzCgLdHTaJtpBOjvQ-39" value="Contient les definitions des QMs&lt;div&gt;Chanels (SRD,RCV, transmit queue)&lt;/div&gt;&lt;div&gt;Permet la création d&#39;objets automatiquement au sein des clusters&amp;nbsp;&lt;/div&gt;" style="text;html=1;align=left;verticalAlign=middle;whiteSpace=wrap;rounded=0;" vertex="1" parent="1">
          <mxGeometry x="10" y="330" width="210" height="71.46" as="geometry" />
        </mxCell>
        <mxCell id="4UZhzCgLdHTaJtpBOjvQ-40" value="ConfigMap&lt;div&gt;qmjwks-ini-cm&lt;/div&gt;" style="rounded=0;whiteSpace=wrap;html=1;verticalAlign=top;" vertex="1" parent="1">
          <mxGeometry x="390" y="443.29" width="120" height="45.28" as="geometry" />
        </mxCell>
        <mxCell id="4UZhzCgLdHTaJtpBOjvQ-44" value="invoke HTTPS" style="edgeStyle=orthogonalEdgeStyle;rounded=0;orthogonalLoop=1;jettySize=auto;html=1;entryX=0;entryY=0.5;entryDx=0;entryDy=0;exitX=1;exitY=0.5;exitDx=0;exitDy=0;" edge="1" parent="1" source="4UZhzCgLdHTaJtpBOjvQ-45" target="4UZhzCgLdHTaJtpBOjvQ-43">
          <mxGeometry relative="1" as="geometry" />
        </mxCell>
        <mxCell id="4UZhzCgLdHTaJtpBOjvQ-42" value="QueueManager&lt;br&gt;&lt;div&gt;QM1&lt;/div&gt;" style="rounded=0;whiteSpace=wrap;html=1;verticalAlign=top;" vertex="1" parent="1">
          <mxGeometry x="740" y="280.29" width="130" height="98.43" as="geometry" />
        </mxCell>
        <mxCell id="4UZhzCgLdHTaJtpBOjvQ-43" value="Key provider&lt;div&gt;&lt;br&gt;&lt;/div&gt;&lt;div&gt;(KeyCloak)&lt;/div&gt;" style="rounded=0;whiteSpace=wrap;html=1;verticalAlign=top;" vertex="1" parent="1">
          <mxGeometry x="990" y="293.28999999999996" width="130" height="98.43" as="geometry" />
        </mxCell>
        <mxCell id="4UZhzCgLdHTaJtpBOjvQ-45" value="JWT code" style="rounded=0;whiteSpace=wrap;html=1;" vertex="1" parent="1">
          <mxGeometry x="810" y="323.005" width="50" height="39" as="geometry" />
        </mxCell>
      </root>
    </mxGraphModel>
  </diagram>
  <diagram id="7BhQDi70umXX2ms-lZuC" name="Images">
    <mxGraphModel dx="2074" dy="2023" grid="1" gridSize="10" guides="1" tooltips="1" connect="1" arrows="1" fold="1" page="1" pageScale="1" pageWidth="1169" pageHeight="827" math="0" shadow="0">
      <root>
        <mxCell id="0" />
        <mxCell id="1" parent="0" />
        <mxCell id="iGjpVeRC_H579PY2v30k-4" style="edgeStyle=orthogonalEdgeStyle;rounded=0;orthogonalLoop=1;jettySize=auto;html=1;entryX=0;entryY=0.5;entryDx=0;entryDy=0;fontSize=16;" parent="1" source="iGjpVeRC_H579PY2v30k-1" target="iGjpVeRC_H579PY2v30k-2" edge="1">
          <mxGeometry relative="1" as="geometry" />
        </mxCell>
        <mxCell id="iGjpVeRC_H579PY2v30k-1" value="channel" style="rounded=0;whiteSpace=wrap;html=1;fontSize=16;" parent="1" vertex="1">
          <mxGeometry x="201" y="299" width="120" height="60" as="geometry" />
        </mxCell>
        <mxCell id="iGjpVeRC_H579PY2v30k-5" style="edgeStyle=orthogonalEdgeStyle;rounded=0;orthogonalLoop=1;jettySize=auto;html=1;fontSize=16;" parent="1" source="iGjpVeRC_H579PY2v30k-2" target="iGjpVeRC_H579PY2v30k-3" edge="1">
          <mxGeometry relative="1" as="geometry" />
        </mxCell>
        <mxCell id="iGjpVeRC_H579PY2v30k-2" value="currentCSVDesc" style="rounded=0;whiteSpace=wrap;html=1;fontSize=16;" parent="1" vertex="1">
          <mxGeometry x="381" y="299" width="120" height="60" as="geometry" />
        </mxCell>
        <mxCell id="iGjpVeRC_H579PY2v30k-3" value="relatedImages" style="rounded=0;whiteSpace=wrap;html=1;fontSize=16;" parent="1" vertex="1">
          <mxGeometry x="551" y="299" width="120" height="60" as="geometry" />
        </mxCell>
        <UserObject label="oc ibm-pak list --case-name ibm-mq&lt;br&gt;&lt;br&gt;cd /home/desprets/.ibm-pak/data/mirror/ibm-mq/3.4.1&lt;br&gt;more images-mapping.txt&lt;div&gt;Example:&amp;nbsp;&lt;span style=&quot;background-color: transparent;&quot;&gt;cp.icr.io/cp/ibm-mqadvanced-server@sha256:1b754ab08d4852777a8050335abca29f22b7b4ccb2fe20948622694f5b78d6e6=icr.io/cp/ibm-mqadvanced-server:9.4.0.7-r1&lt;/span&gt;&lt;/div&gt;&lt;div&gt;&lt;br&gt;OR&lt;br&gt;oc get packagemanifest ibm-mq -o json&lt;div&gt;&lt;br&gt;&lt;div&gt;kubectl&amp;nbsp;&amp;nbsp;&lt;span style=&quot;background-color: transparent; color: light-dark(rgb(0, 0, 0), rgb(255, 255, 255));&quot;&gt;get packagemanifest ibm-mq -o json&lt;/span&gt;&lt;/div&gt;&lt;div&gt;&lt;span style=&quot;background-color: transparent; color: light-dark(rgb(0, 0, 0), rgb(255, 255, 255));&quot;&gt;&lt;br&gt;&lt;/span&gt;&lt;/div&gt;&lt;div&gt;&lt;span style=&quot;background-color: transparent; color: light-dark(rgb(0, 0, 0), rgb(255, 255, 255));&quot;&gt;Maybe use API as well&lt;/span&gt;&lt;/div&gt;&lt;/div&gt;&lt;/div&gt;" link="oc ibm-pak list --case-name ibm-mq&#xa;&#xa;&#xa;&#xa;&#xa;cd /home/desprets/.ibm-pak/data/mirror/ibm-mq/3.4.1&#xa;more images-mapping.txt&#xa;OR&#xa;oc get packagemanifest ibm-mq -o json" id="iGjpVeRC_H579PY2v30k-6">
          <mxCell style="text;html=1;align=left;verticalAlign=middle;whiteSpace=wrap;rounded=0;fontSize=16;" parent="1" vertex="1">
            <mxGeometry x="45" y="10" width="1070" height="200" as="geometry" />
          </mxCell>
        </UserObject>
        <mxCell id="iGjpVeRC_H579PY2v30k-7" value="entitlement to access the images" style="rounded=0;whiteSpace=wrap;html=1;fontSize=16;" parent="1" vertex="1">
          <mxGeometry x="340" y="590" width="120" height="60" as="geometry" />
        </mxCell>
        <mxCell id="iGjpVeRC_H579PY2v30k-8" value="secret in your cluster to access the images" style="rounded=0;whiteSpace=wrap;html=1;fontSize=16;" parent="1" vertex="1">
          <mxGeometry x="510" y="590" width="140" height="60" as="geometry" />
        </mxCell>
        <mxCell id="iGjpVeRC_H579PY2v30k-9" value="Catalog Source" style="rounded=0;whiteSpace=wrap;html=1;fontSize=16;" parent="1" vertex="1">
          <mxGeometry x="200" y="400" width="120" height="60" as="geometry" />
        </mxCell>
        <mxCell id="iGjpVeRC_H579PY2v30k-10" value="Package Manifest" style="rounded=0;whiteSpace=wrap;html=1;fontSize=16;" parent="1" vertex="1">
          <mxGeometry x="410" y="400" width="120" height="60" as="geometry" />
        </mxCell>
        <mxCell id="iGjpVeRC_H579PY2v30k-11" value="Resource Group" style="rounded=0;whiteSpace=wrap;html=1;fontSize=16;" parent="1" vertex="1">
          <mxGeometry x="800" y="400" width="120" height="60" as="geometry" />
        </mxCell>
      </root>
    </mxGraphModel>
  </diagram>
  <diagram id="tAwYNA3uFQUVHqpSkI3z" name="ES">
    <mxGraphModel dx="1185" dy="683" grid="1" gridSize="10" guides="1" tooltips="1" connect="1" arrows="1" fold="1" page="1" pageScale="1" pageWidth="1169" pageHeight="827" math="0" shadow="0">
      <root>
        <mxCell id="0" />
        <mxCell id="1" parent="0" />
        <mxCell id="Bf1Le8ibkL58mJHD5RrQ-9" value="ConsumerCLI" style="swimlane;fontStyle=1;align=center;verticalAlign=top;childLayout=stackLayout;horizontal=1;startSize=26;horizontalStack=0;resizeParent=1;resizeParentMax=0;resizeLast=0;collapsible=1;marginBottom=0;whiteSpace=wrap;html=1;" vertex="1" parent="1">
          <mxGeometry x="250" y="260" width="230" height="200" as="geometry" />
        </mxCell>
        <mxCell id="Bf1Le8ibkL58mJHD5RrQ-10" value="&lt;div&gt;+ apikey: String&lt;/div&gt;&lt;div&gt;+ bootstrapServers: String&lt;/div&gt;&lt;div&gt;+ topicName: String&lt;/div&gt;&lt;div&gt;+ consumerGroup: String&lt;/div&gt;&lt;div&gt;+ autoCommit: boolean&lt;/div&gt;&lt;div&gt;+ autoOffset: String&lt;/div&gt;&lt;div&gt;+ pollRecords: int&lt;/div&gt;&lt;div&gt;+ pollLoop: boolean&lt;/div&gt;" style="text;strokeColor=none;fillColor=none;align=left;verticalAlign=top;spacingLeft=4;spacingRight=4;overflow=hidden;rotatable=0;points=[[0,0.5],[1,0.5]];portConstraint=eastwest;whiteSpace=wrap;html=1;" vertex="1" parent="Bf1Le8ibkL58mJHD5RrQ-9">
          <mxGeometry y="26" width="230" height="104" as="geometry" />
        </mxCell>
        <mxCell id="Bf1Le8ibkL58mJHD5RrQ-11" value="" style="line;strokeWidth=1;fillColor=none;align=left;verticalAlign=middle;spacingTop=-1;spacingLeft=3;spacingRight=3;rotatable=0;labelPosition=right;points=[];portConstraint=eastwest;strokeColor=inherit;" vertex="1" parent="Bf1Le8ibkL58mJHD5RrQ-9">
          <mxGeometry y="130" width="230" height="8" as="geometry" />
        </mxCell>
        <mxCell id="Bf1Le8ibkL58mJHD5RrQ-12" value="&lt;div&gt;+ ConsumerCLI()&lt;/div&gt;&lt;div&gt;+ parse(String[] args): ConsumerCLI&lt;/div&gt;&lt;div&gt;+ printHelpAndExit(String, Options): void&lt;/div&gt;" style="text;strokeColor=none;fillColor=none;align=left;verticalAlign=top;spacingLeft=4;spacingRight=4;overflow=hidden;rotatable=0;points=[[0,0.5],[1,0.5]];portConstraint=eastwest;whiteSpace=wrap;html=1;" vertex="1" parent="Bf1Le8ibkL58mJHD5RrQ-9">
          <mxGeometry y="138" width="230" height="62" as="geometry" />
        </mxCell>
        <mxCell id="Bf1Le8ibkL58mJHD5RrQ-13" value="ConsumerConfiguration" style="swimlane;fontStyle=1;align=center;verticalAlign=top;childLayout=stackLayout;horizontal=1;startSize=26;horizontalStack=0;resizeParent=1;resizeParentMax=0;resizeLast=0;collapsible=1;marginBottom=0;whiteSpace=wrap;html=1;" vertex="1" parent="1">
          <mxGeometry x="580" y="260" width="266.14119999999997" height="60" as="geometry" />
        </mxCell>
        <mxCell id="Bf1Le8ibkL58mJHD5RrQ-15" value="" style="line;strokeWidth=1;fillColor=none;align=left;verticalAlign=middle;spacingTop=-1;spacingLeft=3;spacingRight=3;rotatable=0;labelPosition=right;points=[];portConstraint=eastwest;strokeColor=inherit;" vertex="1" parent="Bf1Le8ibkL58mJHD5RrQ-13">
          <mxGeometry y="26" width="266.14119999999997" height="8" as="geometry" />
        </mxCell>
        <mxCell id="Bf1Le8ibkL58mJHD5RrQ-16" value="+ makeConfiguration(&lt;span style=&quot;text-align: center;&quot;&gt;ConsumerCLI&lt;/span&gt;): Properties" style="text;strokeColor=none;fillColor=none;align=left;verticalAlign=top;spacingLeft=4;spacingRight=4;overflow=hidden;rotatable=0;points=[[0,0.5],[1,0.5]];portConstraint=eastwest;whiteSpace=wrap;html=1;" vertex="1" parent="Bf1Le8ibkL58mJHD5RrQ-13">
          <mxGeometry y="34" width="266.14119999999997" height="26" as="geometry" />
        </mxCell>
        <mxCell id="Bf1Le8ibkL58mJHD5RrQ-22" value="uses" style="edgeStyle=orthogonalEdgeStyle;rounded=0;orthogonalLoop=1;jettySize=auto;html=1;entryX=0.5;entryY=0;entryDx=0;entryDy=0;" edge="1" parent="1" source="Bf1Le8ibkL58mJHD5RrQ-17" target="Bf1Le8ibkL58mJHD5RrQ-9">
          <mxGeometry relative="1" as="geometry" />
        </mxCell>
        <mxCell id="Bf1Le8ibkL58mJHD5RrQ-17" value="ESKafkaConsumer" style="swimlane;fontStyle=1;align=center;verticalAlign=top;childLayout=stackLayout;horizontal=1;startSize=26;horizontalStack=0;resizeParent=1;resizeParentMax=0;resizeLast=0;collapsible=1;marginBottom=0;whiteSpace=wrap;html=1;" vertex="1" parent="1">
          <mxGeometry x="490" y="120" width="180" height="108" as="geometry">
            <mxRectangle x="425" y="80" width="140" height="30" as="alternateBounds" />
          </mxGeometry>
        </mxCell>
        <mxCell id="Bf1Le8ibkL58mJHD5RrQ-18" value="&lt;div&gt;+ consumer: KafkaConsumer&lt;/div&gt;&lt;div&gt;+ mainThread: Thread&lt;/div&gt;" style="text;strokeColor=none;fillColor=none;align=left;verticalAlign=top;spacingLeft=4;spacingRight=4;overflow=hidden;rotatable=0;points=[[0,0.5],[1,0.5]];portConstraint=eastwest;whiteSpace=wrap;html=1;" vertex="1" parent="Bf1Le8ibkL58mJHD5RrQ-17">
          <mxGeometry y="26" width="180" height="34" as="geometry" />
        </mxCell>
        <mxCell id="Bf1Le8ibkL58mJHD5RrQ-19" value="" style="line;strokeWidth=1;fillColor=none;align=left;verticalAlign=middle;spacingTop=-1;spacingLeft=3;spacingRight=3;rotatable=0;labelPosition=right;points=[];portConstraint=eastwest;strokeColor=inherit;" vertex="1" parent="Bf1Le8ibkL58mJHD5RrQ-17">
          <mxGeometry y="60" width="180" height="8" as="geometry" />
        </mxCell>
        <mxCell id="Bf1Le8ibkL58mJHD5RrQ-20" value="+ main(String[] args): void&lt;div&gt;+ shutdown(): void&lt;/div&gt;" style="text;strokeColor=none;fillColor=none;align=left;verticalAlign=top;spacingLeft=4;spacingRight=4;overflow=hidden;rotatable=0;points=[[0,0.5],[1,0.5]];portConstraint=eastwest;whiteSpace=wrap;html=1;" vertex="1" parent="Bf1Le8ibkL58mJHD5RrQ-17">
          <mxGeometry y="68" width="180" height="40" as="geometry" />
        </mxCell>
        <mxCell id="Bf1Le8ibkL58mJHD5RrQ-21" value="uses" style="edgeStyle=orthogonalEdgeStyle;rounded=0;orthogonalLoop=1;jettySize=auto;html=1;entryX=0.5;entryY=0;entryDx=0;entryDy=0;" edge="1" parent="1" source="Bf1Le8ibkL58mJHD5RrQ-20" target="Bf1Le8ibkL58mJHD5RrQ-13">
          <mxGeometry relative="1" as="geometry" />
        </mxCell>
      </root>
    </mxGraphModel>
  </diagram>
  <diagram id="oJNq_LI4i2CY0p3kn484" name="EEM">
    <mxGraphModel dx="865" dy="507" grid="1" gridSize="10" guides="1" tooltips="1" connect="1" arrows="1" fold="1" page="1" pageScale="1" pageWidth="1169" pageHeight="827" math="0" shadow="0">
      <root>
        <mxCell id="0" />
        <mxCell id="1" parent="0" />
        <mxCell id="GBeKUc6dDYZakJcaIJuS-1" value="&lt;div&gt;(Kubernetes)&lt;/div&gt;Event Gateway" style="rounded=0;whiteSpace=wrap;html=1;" vertex="1" parent="1">
          <mxGeometry x="230" y="390" width="120" height="60" as="geometry" />
        </mxCell>
        <mxCell id="GBeKUc6dDYZakJcaIJuS-8" value="refers to" style="edgeStyle=orthogonalEdgeStyle;rounded=0;orthogonalLoop=1;jettySize=auto;html=1;" edge="1" parent="1" source="GBeKUc6dDYZakJcaIJuS-2" target="GBeKUc6dDYZakJcaIJuS-5">
          <mxGeometry relative="1" as="geometry" />
        </mxCell>
        <mxCell id="GBeKUc6dDYZakJcaIJuS-2" value="Subscriptions" style="rounded=0;whiteSpace=wrap;html=1;" vertex="1" parent="1">
          <mxGeometry x="667" y="270" width="120" height="60" as="geometry" />
        </mxCell>
        <mxCell id="GBeKUc6dDYZakJcaIJuS-9" value="exists on" style="edgeStyle=orthogonalEdgeStyle;rounded=0;orthogonalLoop=1;jettySize=auto;html=1;" edge="1" parent="1" source="GBeKUc6dDYZakJcaIJuS-3" target="GBeKUc6dDYZakJcaIJuS-6">
          <mxGeometry relative="1" as="geometry" />
        </mxCell>
        <mxCell id="GBeKUc6dDYZakJcaIJuS-3" value="(Topic)&lt;div&gt;Event sources&lt;/div&gt;" style="rounded=0;whiteSpace=wrap;html=1;" vertex="1" parent="1">
          <mxGeometry x="230" y="150" width="120" height="60" as="geometry" />
        </mxCell>
        <mxCell id="GBeKUc6dDYZakJcaIJuS-7" value="contains" style="edgeStyle=orthogonalEdgeStyle;rounded=0;orthogonalLoop=1;jettySize=auto;html=1;entryX=0;entryY=0.5;entryDx=0;entryDy=0;" edge="1" parent="1" source="GBeKUc6dDYZakJcaIJuS-4" target="GBeKUc6dDYZakJcaIJuS-5">
          <mxGeometry relative="1" as="geometry" />
        </mxCell>
        <mxCell id="GBeKUc6dDYZakJcaIJuS-10" value="is linked to" style="edgeStyle=orthogonalEdgeStyle;rounded=0;orthogonalLoop=1;jettySize=auto;html=1;entryX=0.5;entryY=1;entryDx=0;entryDy=0;" edge="1" parent="1" source="GBeKUc6dDYZakJcaIJuS-4" target="GBeKUc6dDYZakJcaIJuS-3">
          <mxGeometry relative="1" as="geometry" />
        </mxCell>
        <mxCell id="GBeKUc6dDYZakJcaIJuS-11" value="is published to" style="edgeStyle=orthogonalEdgeStyle;rounded=0;orthogonalLoop=1;jettySize=auto;html=1;entryX=0.5;entryY=0;entryDx=0;entryDy=0;" edge="1" parent="1" source="GBeKUc6dDYZakJcaIJuS-4" target="GBeKUc6dDYZakJcaIJuS-1">
          <mxGeometry relative="1" as="geometry">
            <mxPoint x="220" y="370" as="targetPoint" />
          </mxGeometry>
        </mxCell>
        <mxCell id="GBeKUc6dDYZakJcaIJuS-4" value="Event Endpoints" style="rounded=0;whiteSpace=wrap;html=1;" vertex="1" parent="1">
          <mxGeometry x="230" y="270" width="120" height="60" as="geometry" />
        </mxCell>
        <mxCell id="GBeKUc6dDYZakJcaIJuS-15" style="edgeStyle=orthogonalEdgeStyle;rounded=0;orthogonalLoop=1;jettySize=auto;html=1;" edge="1" parent="1" source="GBeKUc6dDYZakJcaIJuS-5" target="GBeKUc6dDYZakJcaIJuS-13">
          <mxGeometry relative="1" as="geometry" />
        </mxCell>
        <mxCell id="GBeKUc6dDYZakJcaIJuS-5" value="Options" style="rounded=0;whiteSpace=wrap;html=1;" vertex="1" parent="1">
          <mxGeometry x="449" y="270" width="120" height="60" as="geometry" />
        </mxCell>
        <mxCell id="GBeKUc6dDYZakJcaIJuS-6" value="(Kafka)&lt;div&gt;Clusters&lt;/div&gt;" style="rounded=0;whiteSpace=wrap;html=1;" vertex="1" parent="1">
          <mxGeometry x="449" y="150" width="120" height="60" as="geometry" />
        </mxCell>
        <mxCell id="GBeKUc6dDYZakJcaIJuS-13" value="Controls" style="rounded=0;whiteSpace=wrap;html=1;" vertex="1" parent="1">
          <mxGeometry x="449" y="390" width="120" height="60" as="geometry" />
        </mxCell>
      </root>
    </mxGraphModel>
  </diagram>
</mxfile>
